<svg width="350" height="350" viewBox="0 0 350 350" fill="none" xmlns="http://www.w3.org/2000/svg">
<path d="M54.474 333.284C54.474 333.284 42.574 271.754 42.574 259.084C42.574 241.584 55.944 234.584 55.944 234.584L50.736 219.723H79.394L74.9 234.5C74.9 234.5 89.985 242.501 87.885 260.666C83.944 294.637 77.679 333.277 77.679 333.277L54.474 333.284Z" fill="#F5F5F5"/>
<path d="M81.8091 241.584C81.702 241.593 81.5942 241.593 81.4871 241.584C81.1779 241.551 80.867 241.537 80.5561 241.542C79.3502 241.56 78.1601 241.819 77.0561 242.305C75.3238 243.081 73.7951 244.248 72.5901 245.714C71.8281 246.62 71.1421 247.587 70.5391 248.605C69.8464 249.736 69.2449 250.92 68.7401 252.147C68.1807 253.476 67.8973 254.905 67.9071 256.347C67.9515 257.904 68.5525 259.395 69.6011 260.547C70.1515 261.146 70.8526 261.586 71.6311 261.821C72.432 262.056 73.2863 262.034 74.0741 261.758C74.8915 261.443 75.6258 260.945 76.2204 260.302C76.8151 259.659 77.2542 258.888 77.5041 258.048C77.749 257.16 77.7678 256.224 77.5587 255.327C77.3497 254.429 76.9194 253.599 76.3071 252.91C75.0532 251.421 73.3212 250.414 71.4071 250.061C69.4061 249.755 67.3596 249.997 65.4851 250.761C63.5397 251.53 61.7403 252.626 60.1651 254.002C56.9749 256.682 54.7701 260.35 53.9001 264.425C53.4987 266.341 53.537 268.322 54.0121 270.221C54.4082 272.046 55.3918 273.691 56.8121 274.904C57.4886 275.478 58.3092 275.855 59.1851 275.996C60.0309 276.126 60.8954 275.955 61.6281 275.513C62.3091 275.046 62.8646 274.419 63.2455 273.686C63.6265 272.954 63.821 272.139 63.8121 271.313C63.8374 270.528 63.6818 269.747 63.3571 269.031C63.0144 268.344 62.5385 267.733 61.9571 267.232C60.8537 266.293 59.5156 265.671 58.0861 265.433C55.6268 265.041 53.1072 265.487 50.9321 266.7C49.2633 267.601 47.811 268.855 46.6761 270.375C45.9466 271.327 45.366 272.385 44.9541 273.511C44.6671 274.281 44.5691 274.708 44.5481 274.701C44.6243 274.287 44.7343 273.879 44.8771 273.483C45.2607 272.334 45.8229 271.252 46.5431 270.277C47.6735 268.717 49.1369 267.428 50.8271 266.504C53.0641 265.229 55.67 264.757 58.2121 265.167C59.6971 265.405 61.0889 266.044 62.2371 267.015C62.8427 267.539 63.3397 268.176 63.7001 268.891C64.0486 269.652 64.2186 270.483 64.1971 271.32C64.2036 272.202 63.9931 273.072 63.5842 273.853C63.1753 274.634 62.5804 275.303 61.8521 275.8C61.0477 276.291 60.0956 276.482 59.1641 276.339C58.2225 276.196 57.3386 275.796 56.6091 275.184C55.1082 273.921 54.0651 272.199 53.6411 270.284C53.1447 268.329 53.0992 266.288 53.5081 264.313C54.3996 260.162 56.6482 256.425 59.8991 253.694C61.5127 252.287 63.3544 251.164 65.3451 250.376C67.2911 249.594 69.4121 249.352 71.4841 249.676C73.4985 250.043 75.3211 251.103 76.6361 252.672C77.2628 253.441 77.7164 254.337 77.9661 255.297C78.2071 256.245 78.1804 257.241 77.8891 258.174C77.619 259.068 77.1472 259.889 76.51 260.572C75.8729 261.255 75.0874 261.783 74.2141 262.115C73.3547 262.409 72.4251 262.429 71.5541 262.171C70.715 261.91 69.9626 261.426 69.3771 260.771C68.2762 259.545 67.6483 257.966 67.6061 256.319C67.6 254.827 67.9002 253.35 68.4881 251.979C69.0118 250.746 69.6296 249.554 70.3361 248.416C70.9514 247.389 71.654 246.417 72.4361 245.511C73.6697 244.03 75.236 242.862 77.0071 242.102C78.1268 241.627 79.3328 241.388 80.5491 241.402C80.9745 241.416 81.397 241.477 81.8091 241.584Z" fill="#E0E0E0"/>
<path d="M82.551 288.064C82.6256 289.112 82.5382 290.165 82.292 291.186C82.0354 292.405 81.6113 293.583 81.032 294.686C80.2799 296.147 79.2614 297.455 78.029 298.543C76.5316 299.863 74.7379 300.802 72.8 301.28C70.5692 301.859 68.2233 301.825 66.01 301.182C63.5626 300.439 61.4197 298.927 59.899 296.87C58.2049 294.675 57.3687 291.937 57.547 289.17C57.6172 287.744 58.222 286.397 59.241 285.397C59.7746 284.948 60.4136 284.641 61.0981 284.506C61.7825 284.372 62.49 284.413 63.154 284.627C63.7963 284.804 64.3957 285.11 64.9156 285.526C65.4355 285.943 65.8651 286.461 66.178 287.049C66.7341 288.2 66.875 289.509 66.577 290.752C66.3163 291.927 65.7487 293.011 64.932 293.895C64.1621 294.715 63.2268 295.361 62.188 295.792C60.3285 296.547 58.3039 296.803 56.315 296.534C54.6838 296.332 53.101 295.843 51.639 295.092C50.5356 294.533 49.5135 293.827 48.601 292.992C47.8045 292.301 47.1197 291.491 46.571 290.591C46.624 290.636 46.671 290.688 46.711 290.745L47.089 291.221C47.5874 291.81 48.1278 292.362 48.706 292.873C49.6243 293.674 50.6433 294.352 51.737 294.889C53.1806 295.608 54.74 296.065 56.343 296.24C58.2787 296.487 60.2453 296.224 62.048 295.477C63.0414 295.062 63.9342 294.439 64.666 293.65C65.4309 292.81 65.9619 291.784 66.206 290.675C66.4773 289.515 66.3439 288.298 65.828 287.224C65.5351 286.685 65.136 286.211 64.6547 285.831C64.1734 285.451 63.6201 285.172 63.028 285.012C62.4329 284.824 61.8 284.79 61.1881 284.912C60.5762 285.035 60.0052 285.31 59.528 285.712C58.5867 286.641 58.0315 287.891 57.974 289.212C57.7958 291.871 58.5866 294.504 60.2 296.625C61.6619 298.625 63.7321 300.099 66.101 300.825C68.2501 301.459 70.5304 301.503 72.702 300.951C74.5992 300.495 76.3591 299.59 77.833 298.312C79.0519 297.256 80.0652 295.984 80.822 294.56C81.4081 293.489 81.8483 292.345 82.131 291.158C82.3093 290.408 82.4286 289.645 82.488 288.876C82.488 288.631 82.488 288.435 82.523 288.274C82.5227 288.203 82.5322 288.132 82.551 288.064Z" fill="#E0E0E0"/>
<path d="M77.2171 317.058C77.1751 317.135 75.9291 316.463 73.7591 315.833C73.1702 315.657 72.5719 315.515 71.9671 315.406C71.3231 315.259 70.6161 315.189 69.8671 315.091C68.2584 314.937 66.6388 314.937 65.0301 315.091C63.4276 315.287 61.8477 315.636 60.3121 316.134C59.6121 316.393 58.9121 316.617 58.3451 316.904C57.7825 317.153 57.2334 317.431 56.7001 317.737C54.7261 318.829 53.6551 319.76 53.6061 319.69C53.8126 319.442 54.0475 319.218 54.3061 319.025C54.6007 318.771 54.9117 318.538 55.2371 318.325C55.651 318.021 56.0835 317.742 56.5321 317.492C57.0642 317.169 57.616 316.879 58.1841 316.624C58.8415 316.314 59.5144 316.039 60.2001 315.798C61.7585 315.268 63.3679 314.902 65.0021 314.706C66.6311 314.539 68.273 314.539 69.9021 314.706C70.6077 314.792 71.3086 314.914 72.0021 315.07C72.6138 315.192 73.217 315.354 73.8081 315.553C74.3007 315.7 74.7845 315.876 75.2571 316.078C75.6221 316.215 75.9775 316.377 76.3211 316.561C76.6377 316.692 76.9384 316.859 77.2171 317.058Z" fill="#E0E0E0"/>
<path d="M75.215 235.382C74.9222 235.634 74.6058 235.856 74.27 236.047C73.647 236.46 72.716 237.006 71.54 237.629C65.3619 240.871 58.5405 242.7 51.569 242.984C50.239 243.033 49.161 243.026 48.419 242.984C48.0318 242.988 47.6451 242.955 47.264 242.886C47.6463 242.83 48.0329 242.809 48.419 242.823C49.161 242.823 50.232 242.781 51.555 242.697C58.4585 242.259 65.2052 240.448 71.4 237.37C72.583 236.782 73.5 236.278 74.2 235.914C74.5233 235.709 74.8627 235.531 75.215 235.382Z" fill="#E0E0E0"/>
<path d="M78.8271 220.458C78.8271 220.5 78.1271 220.395 76.8531 220.388C75.0615 220.394 73.2823 220.684 71.5821 221.249C70.4127 221.638 69.2886 222.152 68.2291 222.782C67.6421 223.135 67.0786 223.525 66.5421 223.951C65.963 224.38 65.4429 224.884 64.9951 225.449C64.5232 226.019 64.2009 226.697 64.0571 227.423C63.9906 227.79 64.0158 228.169 64.1306 228.524C64.2454 228.879 64.4462 229.201 64.7151 229.46C65.316 229.985 66.0375 230.353 66.8151 230.531C67.5928 230.808 68.4237 230.904 69.2441 230.811C69.617 230.697 69.944 230.467 70.178 230.155C70.412 229.843 70.5409 229.465 70.5461 229.075C70.6053 228.275 70.4379 227.474 70.0631 226.765C69.3666 225.383 68.2488 224.258 66.8711 223.552C65.6341 222.89 64.2622 222.519 62.8601 222.467C61.6326 222.443 60.4097 222.623 59.2411 222.999C57.543 223.569 55.9476 224.408 54.5161 225.484C54.0121 225.869 53.6271 226.184 53.3681 226.387C53.2424 226.507 53.1039 226.613 52.9551 226.702C53.0597 226.563 53.1795 226.436 53.3121 226.324C53.5571 226.093 53.9281 225.764 54.4251 225.358C55.837 224.215 57.4354 223.325 59.1501 222.726C60.3453 222.313 61.6027 222.11 62.8671 222.124C64.3314 222.167 65.7671 222.54 67.0671 223.216C68.5235 223.951 69.706 225.134 70.4411 226.59C70.8486 227.367 71.0305 228.242 70.9661 229.117C70.9309 229.578 70.7765 230.022 70.5181 230.405C70.2422 230.805 69.8284 231.089 69.3561 231.203C68.4667 231.322 67.5616 231.226 66.7171 230.923C65.868 230.728 65.0812 230.324 64.4281 229.747C64.1159 229.443 63.8827 229.067 63.7485 228.652C63.6143 228.238 63.5833 227.796 63.6581 227.367C63.82 226.574 64.1759 225.833 64.6941 225.211C65.1654 224.629 65.7088 224.109 66.3111 223.664C66.8642 223.236 67.444 222.843 68.0471 222.488C69.1328 221.858 70.2857 221.35 71.4841 220.976C73.2157 220.423 75.0294 220.172 76.8461 220.234C77.3382 220.245 77.8292 220.287 78.3161 220.36C78.4895 220.374 78.6608 220.407 78.8271 220.458Z" fill="#E0E0E0"/>
<path d="M127.113 26.362H38.171V186.137H127.113V26.362Z" fill="#EBEBEB"/>
<path d="M122.64 30.996H41.7271V181.377H122.64V30.996Z" fill="#FAFAFA"/>
<path d="M130.872 187.572L127.113 186.137V23.653H130.872V187.572Z" fill="#E0E0E0"/>
<path d="M61.6001 128.135C68.6001 121.602 75.6001 115.089 82.6001 108.598C85.2601 106.127 88.7391 103.46 92.1621 104.678C93.8141 105.266 95.0531 106.673 96.6631 107.345C99.8901 108.689 103.579 106.75 106.057 104.286C108.535 101.822 110.495 98.742 113.505 96.957C116.515 95.172 121.205 95.403 122.661 98.567V119.819L92.1201 132.895L61.6001 128.135Z" fill="#F5F5F5"/>
<path d="M41.7271 115.913C49.4691 112.763 57.1971 115.437 62.7271 121.702C63.889 123.018 64.9531 124.502 66.5561 125.265C68.7261 126.252 71.232 125.517 73.6051 125.265C76.861 124.938 80.1439 125.518 83.0905 126.941C86.0371 128.364 88.5324 130.575 90.3 133.329L64.4351 146.041L41.7271 145.88V115.913Z" fill="#E0E0E0"/>
<path d="M122.64 116.018C117.544 113.554 113.05 116.536 108.346 119.686C103.642 122.836 99.246 126.882 93.751 128.156C90.062 129.003 86.107 128.534 82.551 129.801C75.285 132.391 71.085 141.61 63.392 142.051C59.192 142.289 55.461 139.755 51.73 137.851C47.999 135.947 45.059 134.141 41.734 136.689V181.37H122.64V116.018Z" fill="#EBEBEB"/>
<path d="M124.397 74.256H41.7271V75.859H124.397V74.256Z" fill="#E0E0E0"/>
<path d="M124.397 110.068H41.7271V111.671H124.397V110.068Z" fill="#E0E0E0"/>
<path d="M124.397 145.88H41.7271V147.483H124.397V145.88Z" fill="#E0E0E0"/>
<path d="M80.1431 75.047V185.633H84.2311V75.047H80.1431Z" fill="#E0E0E0"/>
<path d="M59.1641 30.996H57.3091V75.054H59.1641V30.996Z" fill="#E0E0E0"/>
<path d="M75.1381 30.996H73.2831V75.054H75.1381V30.996Z" fill="#E0E0E0"/>
<path d="M91.105 30.996H89.25V75.054H91.105V30.996Z" fill="#E0E0E0"/>
<path d="M107.079 30.996H105.224V75.054H107.079V30.996Z" fill="#E0E0E0"/>
<path d="M38.171 23.653H34.412V187.124H38.171V23.653Z" fill="#E0E0E0"/>
<path d="M130.872 22.001H34.412V26.362H130.872V22.001Z" fill="#E0E0E0"/>
<path d="M133.413 188.111H31.738V192.171H133.413V188.111Z" fill="#E0E0E0"/>
<path d="M127.113 186.137L133.42 188.111H31.738L38.171 186.137H127.113Z" fill="#EBEBEB"/>
<path d="M295.925 330.974V121.177H293.328V331.023L271.859 332.633H293.328H295.925H317.394L295.925 330.974Z" fill="#EBEBEB"/>
<path d="M279.797 102.9L270.158 145.999H319.102L308.091 103.033L279.797 102.9Z" fill="#E0E0E0"/>
<path d="M288.771 163.464C288.659 163.464 288.582 158.172 288.596 151.648C288.61 145.124 288.708 139.832 288.82 139.839C288.932 139.846 289.016 145.124 288.995 151.648C288.974 158.172 288.883 163.464 288.771 163.464Z" fill="#E0E0E0"/>
<path d="M288.75 163.38C288.75 163.331 289.1 163.38 289.254 163.821C289.297 163.952 289.308 164.092 289.286 164.228C289.264 164.365 289.21 164.494 289.128 164.605C289.014 164.743 288.859 164.841 288.685 164.884C288.511 164.927 288.327 164.913 288.162 164.843C288.01 164.797 287.874 164.708 287.772 164.586C287.67 164.464 287.606 164.315 287.588 164.156C287.57 163.998 287.599 163.839 287.671 163.697C287.744 163.555 287.856 163.438 287.994 163.359C288.407 163.114 288.694 163.317 288.694 163.359C288.694 163.401 288.435 163.359 288.19 163.597C288.126 163.655 288.075 163.725 288.038 163.803C288.002 163.881 287.983 163.966 287.98 164.052C287.991 164.149 288.03 164.24 288.092 164.314C288.154 164.389 288.237 164.444 288.33 164.472C288.419 164.512 288.519 164.524 288.615 164.507C288.711 164.489 288.8 164.443 288.869 164.374C288.924 164.308 288.965 164.23 288.988 164.147C289.01 164.064 289.015 163.976 289.002 163.891C288.939 163.562 288.722 163.436 288.75 163.38Z" fill="#E0E0E0"/>
<path d="M320.075 31.276H270.76V82.684H320.075V31.276Z" fill="#E0E0E0"/>
<path d="M316.736 31.276H267.421V82.684H316.736V31.276Z" fill="#EBEBEB"/>
<path d="M310.107 38.185H274.05V75.775H310.107V38.185Z" fill="#FAFAFA"/>
<path d="M274.05 76.02C273.788 76.3907 273.487 76.7332 273.154 77.042C272.573 77.651 271.754 78.442 270.851 79.366C269.948 80.29 269.115 81.053 268.499 81.627C268.189 81.955 267.844 82.2483 267.47 82.502C267.737 82.1368 268.037 81.797 268.366 81.487C268.947 80.878 269.766 80.087 270.669 79.163C271.572 78.239 272.412 77.469 273.028 76.902C273.338 76.5742 273.68 76.2787 274.05 76.02Z" fill="#E0E0E0"/>
<path d="M310.1 75.929C310.471 76.1935 310.814 76.4962 311.122 76.832C311.731 77.413 312.522 78.232 313.446 79.128C314.37 80.024 315.133 80.871 315.707 81.48C316.035 81.7904 316.328 82.1355 316.582 82.509C316.214 82.2455 315.874 81.9453 315.567 81.613C314.965 81.032 314.167 80.213 313.243 79.31C312.319 78.407 311.549 77.567 310.982 76.958C310.653 76.6468 310.357 76.3019 310.1 75.929Z" fill="#E0E0E0"/>
<path d="M310.009 38.283C310.278 37.9152 310.58 37.5731 310.912 37.261C311.493 36.659 312.312 35.861 313.208 34.944C314.104 34.027 314.951 33.25 315.56 32.683C315.874 32.359 316.219 32.066 316.589 31.808C316.328 32.1755 316.03 32.5156 315.7 32.823C315.119 33.425 314.3 34.223 313.397 35.147C312.494 36.071 311.654 36.841 311.045 37.408C310.732 37.7363 310.385 38.0297 310.009 38.283Z" fill="#E0E0E0"/>
<path d="M273.952 38.381C273.584 38.1122 273.242 37.8099 272.93 37.478C272.328 36.897 271.53 36.078 270.613 35.182C269.696 34.286 268.919 33.439 268.352 32.83C268.03 32.5121 267.735 32.1679 267.47 31.801C267.841 32.063 268.184 32.3633 268.492 32.697C269.094 33.271 269.892 34.097 270.816 35C271.74 35.903 272.51 36.743 273.077 37.352C273.405 37.6624 273.698 38.0074 273.952 38.381Z" fill="#E0E0E0"/>
<path d="M310.009 75.775C310.009 75.775 310.009 75.712 310.009 75.593C310.009 75.474 310.009 75.292 310.009 75.068C310.009 74.599 310.009 73.92 310.009 73.038C310.009 71.267 310.009 68.677 310.009 65.38C310.009 58.8 309.974 49.42 309.946 38.185L310.065 38.304H274.113L274.253 38.171C274.253 51.968 274.253 64.876 274.253 75.761L274.134 75.642L300.181 75.705H307.489H309.421H307.538H300.251L274.134 75.761H274.022V75.649C274.022 64.764 274.022 51.849 274.022 38.059V37.926H274.162H310.114H310.1V38.045C310.1 49.308 310.058 58.716 310.044 65.345C310.044 68.628 310.044 71.204 310.044 72.975C310.044 73.85 310.044 74.522 310.044 74.984V75.6C310.036 75.659 310.024 75.7174 310.009 75.775Z" fill="#E0E0E0"/>
<path d="M283.57 53.9C283.57 53.9 282.793 63.21 292.873 63.21C292.873 58.226 288.778 54.306 283.57 53.9Z" fill="#EBEBEB"/>
<path d="M302.008 53.9C302.008 53.9 292.705 53.13 292.705 63.21C297.668 63.203 301.588 59.101 302.008 53.9Z" fill="#EBEBEB"/>
<path d="M292.425 48.804C292.425 48.804 284.823 55.629 292.845 63.196C296.576 59.241 296.254 53.046 292.425 48.804Z" fill="#E0E0E0"/>
<path d="M235.851 36.981H160.433C150.625 36.981 142.674 44.932 142.674 54.74V249.403C142.674 259.211 150.625 267.162 160.433 267.162H235.851C245.659 267.162 253.61 259.211 253.61 249.403V54.74C253.61 44.932 245.659 36.981 235.851 36.981Z" fill="#FAFAFA"/>
<path d="M235.851 267.162L237.531 267.057C238.084 266.987 238.77 266.882 239.575 266.735L240.863 266.399C241.325 266.28 241.794 266.07 242.305 265.895C244.8 264.915 247.037 263.375 248.843 261.394C250.011 260.15 250.982 258.733 251.72 257.194C252.586 255.457 253.147 253.584 253.379 251.657C253.542 249.491 253.593 247.318 253.533 245.147C253.533 242.856 253.533 240.457 253.533 237.951C253.533 232.932 253.533 227.451 253.533 221.627C253.533 209.916 253.533 196.574 253.533 181.832C253.533 152.348 253.533 117.243 253.491 78.232V63.469C253.491 60.977 253.491 58.464 253.491 55.944C253.491 55.314 253.491 54.677 253.456 54.054C253.449 53.4276 253.393 52.8027 253.288 52.185L253.141 51.247C253.078 50.946 252.987 50.638 252.917 50.337C252.847 50.036 252.763 49.721 252.672 49.42L252.343 48.531C251.449 46.155 250.044 44.0044 248.227 42.231C246.387 40.4325 244.178 39.0565 241.752 38.199C240.534 37.7654 239.27 37.4696 237.986 37.317C237.349 37.226 236.698 37.233 236.047 37.191C235.396 37.149 234.738 37.191 234.08 37.191H160.447C157.659 37.2039 154.912 37.8679 152.425 39.13C149.958 40.3874 147.826 42.2162 146.209 44.464C144.581 46.6827 143.512 49.2618 143.094 51.982L142.94 52.99L142.891 54.012C142.842 54.712 142.891 55.412 142.891 56.07V60.186C142.891 71.1433 142.891 81.9303 142.891 92.547C142.891 113.764 142.891 134.225 142.891 153.72C142.891 173.215 142.891 191.737 142.891 209.076C142.891 217.742 142.891 226.105 142.891 234.164C142.891 238.182 142.891 242.13 142.891 245.987C142.836 247.888 142.888 249.79 143.045 251.685C143.269 253.525 143.797 255.316 144.606 256.984C145.365 258.628 146.389 260.137 147.637 261.45C150.024 264.018 153.125 265.813 156.541 266.602C156.95 266.71 157.366 266.787 157.787 266.833C158.198 266.914 158.615 266.968 159.033 266.994C159.866 267.043 160.699 267.085 161.532 267.071H180.292H210.329L229.32 267.106L210.329 267.141H180.292H161.532C160.699 267.141 159.859 267.141 159.012 267.071C158.592 267.071 158.172 266.959 157.752 266.91C157.327 266.858 156.906 266.779 156.492 266.672C154.791 266.283 153.157 265.646 151.641 264.782C150.077 263.898 148.66 262.776 147.441 261.457C146.173 260.129 145.133 258.601 144.361 256.935C143.538 255.243 143.001 253.426 142.772 251.559C142.611 249.653 142.555 247.739 142.604 245.826V234.136C142.604 226.086 142.604 217.723 142.604 209.048C142.604 191.709 142.604 173.187 142.604 153.692C142.604 134.197 142.604 113.736 142.604 92.519V56.042C142.604 55.342 142.604 54.642 142.639 53.942L142.695 52.899L142.849 51.87C143.271 49.0844 144.362 46.4425 146.027 44.17C147.683 41.8778 149.858 40.0113 152.376 38.724C154.914 37.4397 157.715 36.7616 160.559 36.743H234.024C234.682 36.743 235.34 36.743 235.998 36.743C236.656 36.743 237.321 36.785 237.972 36.876C241.911 37.3469 245.584 39.1093 248.416 41.888C250.272 43.7082 251.706 45.9138 252.616 48.349L252.945 49.252C253.043 49.56 253.113 49.875 253.197 50.183C253.281 50.491 253.358 50.806 253.428 51.121L253.575 52.066C253.678 52.6981 253.737 53.3367 253.75 53.977C253.792 54.621 253.75 55.251 253.785 55.881C253.785 58.401 253.785 60.914 253.785 63.406V78.204C253.785 117.187 253.785 152.292 253.743 181.804C253.743 196.546 253.743 209.888 253.743 221.599C253.743 227.451 253.743 232.904 253.743 237.923C253.743 240.429 253.743 242.828 253.743 245.119C253.798 247.295 253.742 249.473 253.575 251.643C253.344 253.594 252.773 255.489 251.888 257.243C251.134 258.779 250.154 260.195 248.983 261.443C247.16 263.426 244.903 264.962 242.389 265.93C241.871 266.105 241.402 266.315 240.94 266.427L239.645 266.756C238.833 266.903 238.14 267.001 237.594 267.064L235.851 267.162Z" fill="#353E43"/>
<path d="M242.949 50.61C240.257 50.8527 237.549 50.8527 234.857 50.61C237.549 50.3673 240.257 50.3673 242.949 50.61Z" fill="#353E43"/>
<path d="M242.949 53.249C240.257 53.4917 237.549 53.4917 234.857 53.249C237.549 53.0064 240.257 53.0064 242.949 53.249Z" fill="#353E43"/>
<path d="M242.949 55.888C240.257 56.1307 237.549 56.1307 234.857 55.888C237.549 55.6454 240.257 55.6454 242.949 55.888Z" fill="#353E43"/>
<path d="M187.082 55.888V53.088L185.682 55.405H185.43L184.03 53.109V55.867H183.505V52.08H183.953L185.542 54.754L187.11 52.08H187.6V55.888H187.082Z" fill="#353E43"/>
<path d="M191.226 53.004L189.826 56.182C189.574 56.791 189.238 56.98 188.797 56.98C188.525 56.9875 188.26 56.8926 188.055 56.714L188.279 56.322C188.418 56.4562 188.604 56.5315 188.797 56.532C189.049 56.532 189.203 56.42 189.35 56.084L189.441 55.888L188.167 53.004H188.713L189.7 55.3L190.694 52.99L191.226 53.004Z" fill="#353E43"/>
<path d="M196.336 53.403C196.336 54.236 195.734 54.733 194.74 54.733H193.802V55.888H193.256V52.08H194.74C195.734 52.08 196.336 52.577 196.336 53.403ZM195.79 53.403C195.79 52.864 195.426 52.549 194.726 52.549H193.802V54.264H194.726C195.426 54.264 195.79 53.949 195.79 53.403Z" fill="#353E43"/>
<path d="M198.562 52.976V53.48H198.436C198.309 53.4714 198.182 53.4913 198.064 53.5382C197.945 53.5851 197.839 53.6579 197.752 53.7511C197.666 53.8444 197.601 53.9558 197.563 54.0772C197.525 54.1987 197.515 54.3271 197.533 54.453V55.853H197.008V53.004H197.505V53.487C197.616 53.3118 197.774 53.1711 197.961 53.0808C198.147 52.9905 198.356 52.9542 198.562 52.976Z" fill="#353E43"/>
<path d="M198.905 54.446C198.899 54.1472 198.983 53.8536 199.145 53.6024C199.307 53.3512 199.54 53.154 199.814 53.0358C200.089 52.9176 200.392 52.8837 200.686 52.9386C200.98 52.9935 201.251 53.1346 201.464 53.3439C201.677 53.5532 201.823 53.8213 201.884 54.114C201.944 54.4066 201.916 54.7107 201.803 54.9873C201.69 55.2639 201.497 55.5007 201.249 55.6673C201.001 55.834 200.709 55.923 200.41 55.923C200.212 55.9328 200.014 55.9015 199.829 55.8311C199.644 55.7607 199.476 55.6527 199.334 55.5139C199.193 55.3752 199.082 55.2087 199.008 55.0249C198.934 54.8411 198.899 54.644 198.905 54.446ZM201.383 54.446C201.373 54.256 201.308 54.0729 201.196 53.9195C201.083 53.766 200.928 53.649 200.75 53.5828C200.571 53.5166 200.377 53.5042 200.192 53.5471C200.006 53.59 199.838 53.6863 199.706 53.8241C199.575 53.9619 199.487 54.1352 199.454 54.3225C199.42 54.5098 199.442 54.7029 199.517 54.8778C199.592 55.0528 199.716 55.2019 199.875 55.3068C200.034 55.4117 200.22 55.4678 200.41 55.468C200.543 55.4713 200.675 55.4468 200.798 55.3959C200.921 55.345 201.031 55.269 201.123 55.1728C201.215 55.0765 201.285 54.9621 201.33 54.8369C201.375 54.7117 201.393 54.5786 201.383 54.446Z" fill="#353E43"/>
<path d="M203.658 51.8C203.867 51.7924 204.073 51.8512 204.246 51.968L204.092 52.367C203.974 52.2815 203.832 52.235 203.686 52.234C203.378 52.234 203.217 52.409 203.217 52.738V52.99H204.057V53.417H203.231V55.874H202.706V53.431H202.216V53.004H202.706V52.745C202.694 52.6173 202.71 52.4885 202.754 52.3679C202.798 52.2473 202.868 52.1379 202.959 52.0475C203.05 51.9572 203.16 51.8881 203.281 51.8453C203.402 51.8025 203.53 51.787 203.658 51.8ZM204.897 52.094C204.898 52.0481 204.908 52.0027 204.926 51.9606C204.945 51.9185 204.971 51.8804 205.005 51.8486C205.038 51.8167 205.077 51.7917 205.12 51.775C205.162 51.7582 205.208 51.7501 205.254 51.751C205.347 51.751 205.436 51.7879 205.502 51.8535C205.567 51.9192 205.604 52.0082 205.604 52.101C205.604 52.1938 205.567 52.2829 205.502 52.3485C205.436 52.4141 205.347 52.451 205.254 52.451C205.208 52.4519 205.162 52.4438 205.12 52.4271C205.077 52.4103 205.038 52.3853 205.005 52.3535C204.971 52.3216 204.945 52.2836 204.926 52.2414C204.908 52.1993 204.898 52.154 204.897 52.108V52.094ZM204.988 52.99H205.513V55.874H204.988V52.99Z" fill="#353E43"/>
<path d="M206.5 51.849H207.025V55.888H206.5V51.849Z" fill="#353E43"/>
<path d="M210.623 54.6H208.285C208.312 54.8469 208.431 55.0743 208.62 55.2357C208.809 55.397 209.052 55.4802 209.3 55.468C209.456 55.473 209.611 55.4443 209.755 55.3839C209.898 55.3235 210.027 55.2328 210.133 55.118L210.42 55.454C210.279 55.6132 210.104 55.7381 209.907 55.8194C209.711 55.9007 209.498 55.9361 209.286 55.923C209.085 55.9377 208.883 55.9102 208.693 55.8422C208.502 55.7742 208.329 55.6672 208.182 55.5281C208.036 55.3891 207.92 55.221 207.843 55.0347C207.765 54.8483 207.728 54.6478 207.732 54.446C207.722 54.2522 207.753 54.0584 207.822 53.877C207.891 53.6956 207.997 53.5305 208.133 53.3923C208.269 53.2541 208.433 53.1457 208.613 53.074C208.794 53.0023 208.987 52.969 209.181 52.976C209.372 52.9757 209.561 53.0145 209.737 53.09C209.912 53.1656 210.071 53.2763 210.202 53.4153C210.333 53.5543 210.434 53.7188 210.5 53.8984C210.565 54.0781 210.592 54.2692 210.581 54.46C210.598 54.5058 210.612 54.5526 210.623 54.6ZM208.285 54.222H210.133C210.113 53.9924 210.007 53.779 209.835 53.6255C209.663 53.4719 209.439 53.3898 209.209 53.396C208.974 53.3865 208.745 53.4703 208.572 53.629C208.399 53.7877 208.296 54.0084 208.285 54.243V54.222Z" fill="#353E43"/>
<path d="M216.741 130.725H179.9V132.909H216.741V130.725Z" fill="#428E8A"/>
<path d="M231.511 136.444C231.511 136.549 217.161 136.633 199.458 136.633C181.755 136.633 167.398 136.549 167.398 136.444C167.398 136.339 181.748 136.262 199.458 136.262C217.168 136.262 231.511 136.346 231.511 136.444Z" fill="#353E43"/>
<path d="M166.145 170.149C172.176 170.149 177.065 165.26 177.065 159.229C177.065 153.198 172.176 148.309 166.145 148.309C160.114 148.309 155.225 153.198 155.225 159.229C155.225 165.26 160.114 170.149 166.145 170.149Z" fill="#428E8A"/>
<path d="M198.086 170.149C204.117 170.149 209.006 165.26 209.006 159.229C209.006 153.198 204.117 148.309 198.086 148.309C192.055 148.309 187.166 153.198 187.166 159.229C187.166 165.26 192.055 170.149 198.086 170.149Z" fill="#428E8A"/>
<path d="M230.027 170.149C236.058 170.149 240.947 165.26 240.947 159.229C240.947 153.198 236.058 148.309 230.027 148.309C223.996 148.309 219.107 153.198 219.107 159.229C219.107 165.26 223.996 170.149 230.027 170.149Z" fill="#428E8A"/>
<path d="M179.802 175C179.802 175.098 173.684 175.182 166.145 175.182C158.606 175.182 152.495 175.098 152.495 175C152.495 174.902 158.606 174.818 166.145 174.818C173.684 174.818 179.802 174.874 179.802 175Z" fill="#353E43"/>
<path d="M209.958 175C209.958 175.098 204.645 175.182 198.058 175.182C191.471 175.182 186.158 175.098 186.158 175C186.158 174.902 191.471 174.818 198.058 174.818C204.645 174.818 209.958 174.874 209.958 175Z" fill="#353E43"/>
<path d="M240.954 175C240.954 175.098 235.641 175.182 229.054 175.182C222.467 175.182 217.189 175.098 217.189 175C217.189 174.902 222.502 174.818 229.054 174.818C235.606 174.818 240.954 174.874 240.954 175Z" fill="#353E43"/>
<path d="M242.431 212.534C242.431 212.534 242.431 212.373 242.431 212.072C242.431 211.771 242.431 211.323 242.431 210.742C242.431 209.566 242.431 207.837 242.431 205.597C242.431 201.103 242.396 194.572 242.368 186.326L242.48 186.438L153.797 186.508L153.979 186.326V212.534L153.797 212.359L217.168 212.436L235.746 212.485H240.744H242.039H242.487H242.06H240.73H235.774L217.231 212.541L153.741 212.618H153.566V212.443C153.566 204.099 153.566 195.286 153.566 186.235V186.053H153.755L242.438 186.116H242.557V186.235C242.557 194.509 242.508 201.068 242.494 205.569C242.494 207.802 242.494 209.524 242.494 210.693C242.494 211.267 242.494 211.701 242.494 212.009C242.494 212.317 242.431 212.534 242.431 212.534Z" fill="#353E43"/>
<path d="M236.292 194.67C236.292 194.768 219.247 194.852 198.212 194.852C177.177 194.852 160.132 194.768 160.132 194.67C160.132 194.572 177.177 194.488 198.212 194.488C219.247 194.488 236.292 194.6 236.292 194.67Z" fill="#353E43"/>
<path d="M236.292 199.857C236.292 199.962 219.247 200.039 198.212 200.039C177.177 200.039 160.132 199.962 160.132 199.857C160.132 199.752 177.177 199.675 198.212 199.675C219.247 199.675 236.292 199.759 236.292 199.857Z" fill="#353E43"/>
<path d="M236.292 205.051C236.292 205.149 219.247 205.233 198.212 205.233C177.177 205.233 160.132 205.149 160.132 205.051C160.132 204.953 177.177 204.869 198.212 204.869C219.247 204.869 236.292 204.953 236.292 205.051Z" fill="#353E43"/>
<path d="M242.431 245.42C242.431 245.42 242.431 245.266 242.431 244.965C242.431 244.664 242.431 244.209 242.431 243.628C242.431 242.452 242.431 240.723 242.431 238.483C242.431 233.996 242.396 227.458 242.368 219.212L242.48 219.331L153.797 219.394L153.979 219.212V245.42L153.797 245.245L217.168 245.329L235.746 245.378H240.744H242.039H242.487C242.487 245.378 242.347 245.378 242.06 245.378H240.786H235.83L217.287 245.427L153.797 245.511H153.622V245.329C153.622 236.985 153.622 228.179 153.622 219.121V218.939H153.811L242.494 219.009H242.613V219.121C242.613 227.395 242.564 233.961 242.55 238.462C242.55 240.695 242.55 242.41 242.55 243.586C242.55 244.153 242.55 244.594 242.55 244.895C242.55 245.196 242.431 245.42 242.431 245.42Z" fill="#353E43"/>
<path d="M236.292 227.556C236.292 227.661 219.247 227.738 198.212 227.738C177.177 227.738 160.132 227.661 160.132 227.556C160.132 227.451 177.177 227.374 198.212 227.374C219.247 227.374 236.292 227.458 236.292 227.556Z" fill="#353E43"/>
<path d="M236.292 232.75C236.292 232.848 219.247 232.932 198.212 232.932C177.177 232.932 160.132 232.848 160.132 232.75C160.132 232.652 177.177 232.568 198.212 232.568C219.247 232.568 236.292 232.645 236.292 232.75Z" fill="#353E43"/>
<path d="M236.292 237.937C236.292 238.042 219.247 238.119 198.212 238.119C177.177 238.119 160.132 238.042 160.132 237.937C160.132 237.832 177.177 237.755 198.212 237.755C219.247 237.755 236.292 237.839 236.292 237.937Z" fill="#353E43"/>
<path d="M154.938 55.895H155.071H155.442H156.8L156.758 55.937C156.758 55.636 156.758 55.307 156.758 54.95C156.758 54.768 156.758 54.593 156.758 54.383C156.778 54.2733 156.834 54.1732 156.916 54.0975C156.998 54.0219 157.102 53.9747 157.213 53.963C157.437 53.963 157.626 53.963 157.864 53.963C157.989 53.983 158.103 54.0468 158.185 54.143C158.267 54.2392 158.312 54.3615 158.312 54.488C158.312 54.943 158.312 55.426 158.312 55.888L158.249 55.825H159.964L159.894 55.888C159.894 55.188 159.894 54.488 159.894 53.753C159.894 53.571 159.894 53.389 159.894 53.207C159.887 53.127 159.861 53.0496 159.82 52.9805C159.779 52.9115 159.723 52.8526 159.656 52.808L158.9 52.031L158.2 51.331L157.85 50.988C157.731 50.869 157.64 50.75 157.5 50.722C157.433 50.7042 157.363 50.7018 157.295 50.7152C157.227 50.7285 157.163 50.7572 157.108 50.799C157.003 50.883 156.891 51.009 156.786 51.114C156.681 51.219 156.373 51.534 156.17 51.73C155.785 52.136 155.379 52.5 155.092 52.85C155.005 53.0504 154.974 53.2704 155.001 53.487V54.089C155.001 54.46 155.001 54.789 155.001 55.062C155.001 55.335 155.001 55.517 155.001 55.685C155.008 55.7595 155.008 55.8345 155.001 55.909C155.001 55.909 155.001 55.839 155.001 55.699C155.001 55.559 155.001 55.335 155.001 55.09C155.001 54.845 155.001 54.481 155.001 54.11C155.001 53.914 155.001 53.711 155.001 53.494V53.158C155.001 53.0324 155.035 52.9091 155.099 52.801C155.414 52.409 155.799 52.101 156.184 51.653L156.793 51.03C156.905 50.918 156.996 50.813 157.122 50.701C157.193 50.6495 157.274 50.6141 157.36 50.5972C157.446 50.5803 157.534 50.5822 157.619 50.603C157.781 50.6616 157.924 50.7632 158.032 50.897L158.382 51.24L159.082 51.94L159.831 52.64C159.903 52.7017 159.966 52.7723 160.02 52.85C160.078 52.9346 160.11 53.0344 160.111 53.137C160.111 53.319 160.111 53.501 160.111 53.683C160.111 54.383 160.111 55.125 160.111 55.818V55.881H160.048H158.333H158.2V55.818C158.2 55.321 158.2 54.838 158.2 54.418C158.202 54.3188 158.168 54.2221 158.105 54.1452C158.043 54.0684 157.955 54.0162 157.857 53.998H157.234C157.144 54.0068 157.06 54.0442 156.993 54.1047C156.926 54.1652 156.881 54.2456 156.863 54.334C156.863 54.502 156.863 54.705 156.863 54.88V55.902H154.966L154.938 55.895Z" fill="#353E43"/>
<path d="M223.7 102.071C227.155 87.176 217.882 72.3007 202.987 68.8456C188.093 65.3905 173.217 74.664 169.762 89.5585C166.307 104.453 175.581 119.328 190.475 122.783C205.37 126.238 220.245 116.965 223.7 102.071Z" fill="#E0E0E0"/>
<path d="M218.897 98.763C219.536 98.0179 219.955 97.109 220.105 96.1388C220.256 95.1686 220.132 94.1757 219.749 93.2719C219.365 92.3681 218.737 91.5894 217.935 91.0235C217.132 90.4576 216.188 90.127 215.208 90.069C215.531 89.155 215.611 88.1727 215.441 87.2183C215.271 86.2639 214.855 85.3702 214.236 84.6244C213.616 83.8787 212.814 83.3065 211.907 82.9639C211 82.6213 210.02 82.5201 209.062 82.67C208.998 81.7067 208.705 80.7728 208.206 79.9462C207.707 79.1196 207.018 78.4243 206.196 77.9186C205.373 77.4129 204.442 77.1114 203.479 77.0392C202.516 76.9671 201.55 77.1265 200.662 77.504C200.091 76.8094 199.367 76.2564 198.547 75.8883C197.727 75.5202 196.832 75.347 195.934 75.3822C195.036 75.4175 194.158 75.6602 193.369 76.0915C192.58 76.5228 191.902 77.1308 191.387 77.868L189.931 77.945C188.668 77.9933 187.43 78.3098 186.3 78.8734C185.169 79.4371 184.171 80.2349 183.372 81.214C183.29 81.3261 183.196 81.4293 183.092 81.522C181.692 82.831 180.222 84.231 179.725 86.086C179.172 88.144 179.907 90.51 178.864 92.386C178.458 93.121 177.793 93.716 177.52 94.486C176.995 95.991 178.01 97.615 177.891 99.204C177.772 100.793 176.372 102.354 176.54 104.034C176.66 104.634 176.902 105.203 177.251 105.705C177.6 106.207 178.049 106.632 178.57 106.953C179.614 107.591 180.587 108.337 181.475 109.179C182.119 109.879 182.539 110.824 183.169 111.573C184.109 112.595 185.402 113.223 186.787 113.329C188.172 113.436 189.545 113.013 190.631 112.147C191.373 112.711 192.239 113.09 193.158 113.25C194.076 113.411 195.019 113.35 195.909 113.071C197.683 112.503 199.352 111.65 200.851 110.544C201.184 111.001 201.627 111.366 202.139 111.607C202.651 111.848 203.215 111.957 203.78 111.922C204.344 111.888 204.891 111.713 205.37 111.412C205.849 111.111 206.245 110.695 206.521 110.201C206.913 111.426 208.369 112.049 209.65 111.923C210.913 111.693 212.109 111.183 213.15 110.432C215.208 109.165 217.504 107.492 217.56 105.077C217.595 103.6 216.741 102.074 217.301 100.709C217.727 99.9803 218.266 99.3235 218.897 98.763Z" fill="#353E43"/>
<path d="M205.03 89.6C204.568 88.34 204.771 86.94 204.596 85.61C204.218 82.67 201.929 80.192 199.171 79.114C196.35 78.1252 193.273 78.1425 190.463 79.163C188.338 79.8007 186.429 81.0117 184.947 82.663C184.01 83.7938 183.358 85.1326 183.045 86.5673C182.732 88.002 182.767 89.4908 183.148 90.909L198.17 88.9C199.497 90.1557 201.019 91.1865 202.678 91.952C203.167 92.1746 203.704 92.2662 204.239 92.218C204.505 92.1892 204.757 92.0849 204.965 91.9175C205.174 91.75 205.33 91.5264 205.415 91.273C205.456 90.6895 205.322 90.1069 205.03 89.6Z" fill="#353E43"/>
<path d="M203.147 86.233L190.092 83.3C185.927 82.964 183.295 88.151 183.141 92.33C182.966 96.971 182.945 102.641 183.582 106.078C184.863 113.001 190.218 113.743 190.218 113.743C190.218 113.743 190.218 118.475 190.337 120.995C195.062 123.242 199.92 122.92 204.876 120.708L205.394 88.662C205.394 88.0486 205.163 87.4577 204.746 87.0074C204.33 86.5572 203.759 86.2806 203.147 86.233Z" fill="#FFBF9D"/>
<path d="M185.85 96.635C185.855 96.8666 185.95 97.0871 186.115 97.2502C186.279 97.4134 186.5 97.5065 186.732 97.51C186.846 97.5157 186.959 97.4987 187.066 97.4602C187.173 97.4216 187.272 97.3622 187.356 97.2854C187.44 97.2086 187.508 97.1159 187.556 97.0127C187.604 96.9094 187.63 96.7977 187.635 96.684C187.63 96.4524 187.535 96.232 187.37 96.0688C187.206 95.9057 186.985 95.8126 186.753 95.809C186.639 95.8024 186.525 95.8187 186.418 95.8569C186.31 95.8951 186.211 95.9545 186.127 96.0315C186.043 96.1084 185.975 96.2015 185.927 96.3052C185.88 96.4089 185.854 96.521 185.85 96.635Z" fill="#353E43"/>
<path d="M184.443 95.235C184.562 95.347 185.22 94.836 186.179 94.808C187.138 94.78 187.852 95.249 187.957 95.13C188.062 95.011 187.887 94.871 187.579 94.654C187.16 94.3801 186.666 94.2413 186.166 94.2564C185.665 94.2714 185.181 94.4395 184.779 94.738C184.485 94.976 184.387 95.2 184.443 95.235Z" fill="#353E43"/>
<path d="M194.943 96.635C194.947 96.8672 195.041 97.0887 195.206 97.2522C195.371 97.4157 195.593 97.5082 195.825 97.51C195.939 97.5166 196.052 97.5003 196.159 97.462C196.266 97.4237 196.365 97.3643 196.448 97.2872C196.532 97.2101 196.599 97.117 196.646 97.0134C196.693 96.9097 196.718 96.7977 196.721 96.684C196.717 96.4519 196.623 96.2304 196.458 96.0669C196.293 95.9034 196.071 95.8108 195.839 95.809C195.725 95.8024 195.612 95.8187 195.505 95.857C195.398 95.8953 195.299 95.9548 195.216 96.0318C195.132 96.1089 195.065 96.2021 195.018 96.3057C194.971 96.4093 194.946 96.5213 194.943 96.635Z" fill="#353E43"/>
<path d="M193.9 95.2C194.012 95.312 194.677 94.794 195.636 94.773C196.595 94.752 197.309 95.214 197.407 95.088C197.505 94.962 197.344 94.829 197.029 94.619C196.615 94.3447 196.126 94.2054 195.629 94.22C195.122 94.223 194.63 94.3927 194.229 94.703C193.9 94.906 193.823 95.123 193.9 95.2Z" fill="#353E43"/>
<path d="M190.582 102.375C190.072 102.226 189.545 102.143 189.014 102.13C188.769 102.13 188.538 102.074 188.496 101.906C188.472 101.664 188.521 101.42 188.636 101.206C188.853 100.604 189.077 99.974 189.336 99.323C189.965 97.732 190.465 96.0935 190.834 94.423C190.075 95.9651 189.443 97.5664 188.944 99.211L188.3 101.101C188.151 101.4 188.114 101.743 188.195 102.067C188.233 102.153 188.29 102.229 188.362 102.289C188.433 102.35 188.517 102.393 188.608 102.417C188.743 102.45 188.882 102.464 189.021 102.459C189.543 102.497 190.067 102.468 190.582 102.375Z" fill="#353E43"/>
<path d="M190.218 113.736C193.491 113.702 196.69 112.759 199.458 111.013C199.458 111.013 197.239 115.913 190.267 115.416L190.218 113.736Z" fill="#AA6550"/>
<path d="M191.051 104.671C191.225 104.434 191.456 104.245 191.723 104.122C191.99 104 192.284 103.948 192.577 103.971C192.789 103.984 192.996 104.04 193.186 104.135C193.376 104.23 193.545 104.362 193.683 104.524C193.817 104.68 193.899 104.873 193.918 105.078C193.937 105.282 193.891 105.488 193.788 105.665C193.639 105.842 193.441 105.97 193.219 106.033C192.998 106.097 192.762 106.093 192.542 106.022C192.085 105.871 191.662 105.633 191.296 105.322C191.188 105.245 191.093 105.15 191.016 105.042C190.98 104.99 190.961 104.927 190.961 104.864C190.961 104.8 190.98 104.738 191.016 104.685" fill="#AA6550"/>
<path d="M193.424 102.963C193.263 102.963 193.291 103.999 192.416 104.762C191.541 105.525 190.435 105.462 190.435 105.581C190.435 105.7 190.687 105.777 191.135 105.777C191.744 105.77 192.331 105.55 192.794 105.154C193.237 104.772 193.514 104.232 193.564 103.649C193.613 103.208 193.494 102.956 193.424 102.963Z" fill="#353E43"/>
<path d="M193.641 92.274C193.746 92.533 194.698 92.386 195.825 92.491C196.952 92.596 197.869 92.883 198.016 92.645C198.079 92.533 197.918 92.288 197.54 92.043C197.044 91.7448 196.486 91.5651 195.909 91.518C195.331 91.4646 194.748 91.5485 194.208 91.763C193.802 91.945 193.599 92.155 193.641 92.274Z" fill="#353E43"/>
<path d="M184.618 91.035C184.793 91.252 185.444 91.035 186.242 90.972C187.04 90.909 187.712 91.084 187.859 90.853C187.922 90.741 187.81 90.524 187.509 90.328C187.114 90.0813 186.651 89.9662 186.186 89.999C185.718 90.0221 185.268 90.1883 184.898 90.475C184.625 90.706 184.541 90.93 184.618 91.035Z" fill="#353E43"/>
<path d="M207.459 87.605C206.15 83.601 200.291 78.092 196.091 78.414L189.413 82.488C189.644 83.6273 190.177 84.6835 190.957 85.5456C191.736 86.4078 192.734 87.0442 193.844 87.388C195.034 87.745 196.462 87.829 197.169 88.844C197.876 89.859 197.491 91.406 198.17 92.47C199.108 93.954 201.67 93.87 202.37 95.473C202.678 96.173 202.524 97.013 202.846 97.713C203.28 98.637 205.646 99.813 206.612 99.484C207.578 99.155 207.571 97.51 207.886 96.642C208.278 95.6569 208.32 94.5673 208.005 93.555C207.55 91.616 208.082 89.516 207.459 87.605Z" fill="#353E43"/>
<path d="M206.591 97.804C206.556 97.804 206.696 97.447 206.801 96.796C206.933 95.8743 206.859 94.9347 206.584 94.045C206.189 92.7258 205.344 91.5865 204.197 90.825C203.488 90.4152 202.754 90.0505 201.999 89.733C201.153 89.3871 200.388 88.87 199.752 88.214C199.216 87.486 198.778 86.6905 198.45 85.848C197.993 84.8588 197.269 84.0162 196.361 83.4142C195.452 82.8122 194.394 82.4746 193.305 82.439C192.374 82.4155 191.45 82.6047 190.603 82.992C189.994 83.258 189.7 83.489 189.679 83.461C189.658 83.433 189.742 83.384 189.882 83.279C190.088 83.1197 190.309 82.9792 190.54 82.859C191.391 82.4052 192.34 82.165 193.305 82.159C194.755 82.165 196.155 82.6945 197.246 83.65C197.887 84.2105 198.407 84.8967 198.772 85.666C199.087 86.4802 199.511 87.2479 200.032 87.948C200.623 88.5709 201.338 89.0622 202.132 89.39C202.899 89.7158 203.643 90.0947 204.358 90.524C205.355 91.2079 206.129 92.1695 206.585 93.2895C207.04 94.4094 207.157 95.6384 206.92 96.824C206.867 97.0804 206.789 97.3311 206.689 97.573C206.647 97.727 206.605 97.811 206.591 97.804Z" fill="#214353"/>
<path d="M205.954 90.363C205.919 90.363 205.8 90.118 205.436 89.761C204.895 89.2817 204.274 88.9003 203.602 88.634C203.123 88.4257 202.656 88.192 202.202 87.934C201.692 87.6532 201.248 87.2665 200.9 86.8C200.151 85.75 199.913 84.35 198.919 83.384C197.988 82.4761 196.786 81.8961 195.496 81.732C194.433 81.6039 193.355 81.6896 192.325 81.984C191.37 82.2836 190.435 82.6437 189.525 83.062C189.734 82.8774 189.97 82.7263 190.225 82.614C190.87 82.2466 191.553 81.9508 192.262 81.732C193.321 81.393 194.44 81.2809 195.545 81.403C196.918 81.5534 198.201 82.1625 199.185 83.132C200.263 84.196 200.501 85.652 201.18 86.632C201.868 87.4419 202.746 88.0695 203.735 88.459C204.422 88.7529 205.043 89.1813 205.562 89.719C205.699 89.8703 205.815 90.0399 205.905 90.223C205.94 90.3 205.968 90.356 205.954 90.363Z" fill="#214353"/>
<path d="M203.7 100.345C203.7 99.827 204.253 98.595 204.764 98.504C206.122 98.252 208.586 98.301 208.698 101.766C208.852 106.498 204.064 105.679 204.057 105.546C204.05 105.413 203.77 102.137 203.7 100.345Z" fill="#FFBF9D"/>
<path d="M205.471 103.698C205.471 103.698 205.555 103.754 205.695 103.817C205.893 103.894 206.113 103.894 206.311 103.817C206.612 103.614 206.852 103.334 207.009 103.007C207.165 102.68 207.231 102.316 207.2 101.955C207.201 101.547 207.107 101.145 206.927 100.779C206.879 100.632 206.796 100.499 206.685 100.392C206.574 100.284 206.438 100.206 206.29 100.163C206.194 100.143 206.093 100.156 206.006 100.201C205.918 100.245 205.848 100.318 205.807 100.408C205.751 100.541 205.807 100.632 205.758 100.646C205.709 100.66 205.653 100.569 205.688 100.373C205.707 100.253 205.769 100.143 205.863 100.065C205.99 99.9655 206.15 99.918 206.311 99.932C206.507 99.9626 206.691 100.043 206.847 100.166C207.003 100.288 207.124 100.449 207.2 100.632C207.417 101.034 207.53 101.484 207.529 101.941C207.529 102.9 207.074 103.81 206.395 104.041C206.269 104.082 206.134 104.095 206.002 104.078C205.87 104.061 205.744 104.015 205.632 103.943C205.485 103.817 205.457 103.712 205.471 103.698Z" fill="#AA6550"/>
<path d="M207.543 104.867C207.613 104.769 207.774 104.72 208.005 104.818C208.158 104.901 208.291 105.014 208.397 105.152C208.503 105.289 208.58 105.447 208.621 105.616C208.699 105.894 208.705 106.188 208.639 106.47C208.573 106.751 208.437 107.011 208.243 107.226C208.003 107.487 207.7 107.683 207.363 107.796C207.027 107.909 206.667 107.934 206.318 107.87C205.972 107.799 205.649 107.642 205.38 107.413C205.111 107.184 204.904 106.891 204.778 106.561C204.677 106.311 204.63 106.043 204.641 105.774C204.652 105.505 204.72 105.241 204.841 105C204.921 104.834 205.038 104.688 205.184 104.576C205.33 104.463 205.5 104.385 205.681 104.349C205.954 104.349 206.087 104.447 206.101 104.566C206.099 104.698 206.08 104.83 206.045 104.958C206.025 105.104 206.025 105.253 206.045 105.399C206.092 105.562 206.171 105.714 206.276 105.847C206.363 105.964 206.49 106.046 206.633 106.078C206.773 106.098 206.915 106.081 207.046 106.029C207.109 106.004 207.167 105.965 207.214 105.915C207.261 105.866 207.297 105.807 207.319 105.742C207.494 105.427 207.41 105.077 207.543 104.867Z" fill="#E0E0E0"/>
<path d="M184.142 120.477L190.295 119.406L204.904 118.881L211.519 119.21C211.519 119.21 198.8 128.03 184.142 120.477Z" fill="#428E8A"/>
<path d="M224.406 95.809C224.406 95.809 224.406 95.655 224.364 95.361C224.322 95.067 224.322 94.612 224.28 94.045C224.28 93.758 224.28 93.436 224.224 93.079C224.168 92.722 224.112 92.337 224.049 91.924C223.986 91.511 223.909 91.056 223.832 90.573C223.741 90.0652 223.622 89.5627 223.475 89.068C222.829 86.4798 221.795 84.0042 220.409 81.725C218.6 78.6931 216.223 76.0384 213.409 73.906L212.219 73.017C211.799 72.744 211.358 72.492 210.924 72.219C210.49 71.946 210.056 71.659 209.58 71.442L208.145 70.742L207.445 70.392L206.675 70.119L205.1 69.573C204.575 69.398 204.022 69.286 203.476 69.139C202.929 68.9768 202.373 68.8506 201.81 68.761C200.654 68.5446 199.485 68.4112 198.31 68.362C197.715 68.362 197.12 68.278 196.518 68.292L194.691 68.383C194.39 68.383 194.082 68.383 193.774 68.446L192.857 68.586C192.241 68.684 191.618 68.761 191.002 68.887C188.479 69.4589 186.04 70.3504 183.743 71.54C183.162 71.855 182.609 72.24 182.035 72.562C181.755 72.744 181.454 72.898 181.181 73.101L180.376 73.71C179.275 74.5203 178.231 75.4068 177.254 76.363C176.285 77.3632 175.385 78.4273 174.559 79.548L173.922 80.395L173.369 81.298L172.816 82.208C172.625 82.5091 172.455 82.8225 172.305 83.146C171.997 83.79 171.682 84.441 171.374 85.092C171.066 85.743 170.877 86.443 170.625 87.129C168.731 92.7582 168.731 98.8528 170.625 104.482C170.87 105.182 171.122 105.882 171.367 106.519C171.612 107.156 171.99 107.821 172.305 108.465L172.536 108.941L172.816 109.403L173.369 110.313L173.922 111.216L174.552 112.063C175.378 113.188 176.281 114.254 177.254 115.255C178.234 116.206 179.275 117.092 180.369 117.908L181.181 118.517C181.456 118.709 181.741 118.887 182.035 119.049C182.609 119.392 183.162 119.749 183.743 120.078C184.905 120.679 186.105 121.205 187.334 121.653C188.532 122.091 189.757 122.451 191.002 122.731C191.618 122.857 192.241 122.927 192.857 123.032L193.774 123.172C194.082 123.214 194.39 123.172 194.691 123.228L196.518 123.326C197.12 123.326 197.715 123.277 198.31 123.256C199.484 123.203 200.654 123.07 201.81 122.857C202.372 122.761 202.928 122.635 203.476 122.479C204.022 122.332 204.575 122.22 205.1 122.045L206.654 121.478L207.417 121.198L208.117 120.855L209.517 120.155C209.993 119.938 210.413 119.63 210.861 119.378C211.309 119.126 211.736 118.86 212.156 118.587L213.346 117.698C216.16 115.566 218.537 112.911 220.346 109.879C221.73 107.599 222.763 105.123 223.412 102.536C223.559 102.039 223.678 101.534 223.769 101.024C223.846 100.548 223.923 100.1 223.986 99.68C224.049 99.26 224.126 98.875 224.161 98.525C224.196 98.175 224.203 97.825 224.217 97.559C224.259 96.985 224.287 96.551 224.301 96.243C224.315 95.935 224.343 95.795 224.343 95.795C224.343 95.795 224.343 95.949 224.343 96.243C224.343 96.537 224.343 96.992 224.294 97.559C224.294 97.853 224.294 98.175 224.252 98.532C224.21 98.889 224.154 99.274 224.091 99.694C224.028 100.114 223.965 100.569 223.895 101.052C223.809 101.565 223.692 102.072 223.545 102.571C222.926 105.184 221.906 107.684 220.521 109.984C218.718 113.048 216.341 115.736 213.521 117.901L212.317 118.804C211.897 119.084 211.456 119.336 211.015 119.609C210.574 119.882 210.14 120.176 209.657 120.4L208.215 121.1L207.515 121.45L206.738 121.73L205.177 122.304C204.645 122.486 204.092 122.598 203.539 122.752C202.984 122.912 202.421 123.041 201.852 123.137C200.696 123.355 199.527 123.496 198.352 123.557C197.75 123.557 197.141 123.634 196.532 123.627L194.691 123.536C194.383 123.536 194.068 123.536 193.76 123.48L192.829 123.34C192.213 123.235 191.583 123.165 190.96 123.039C188.403 122.476 185.928 121.59 183.596 120.4C183.008 120.078 182.448 119.7 181.86 119.364C181.573 119.182 181.272 119.028 180.999 118.818L180.18 118.209C179.066 117.385 178.009 116.487 177.016 115.521C176.032 114.508 175.117 113.43 174.279 112.294L173.642 111.44L173.075 110.523L172.515 109.599L172.235 109.137L171.997 108.647L171.052 106.687C170.8 105.987 170.548 105.287 170.289 104.622C168.371 98.9152 168.371 92.7378 170.289 87.031L171.045 84.931L171.99 82.971C172.139 82.6398 172.314 82.3214 172.515 82.019L173.075 81.095L173.635 80.178L174.279 79.324C175.903 77.042 177.895 75.0455 180.173 73.416L180.992 72.8C181.265 72.597 181.573 72.443 181.853 72.261C182.441 71.911 183.001 71.561 183.589 71.225C184.763 70.609 185.979 70.0779 187.229 69.636C188.446 69.2076 189.69 68.8615 190.953 68.6C191.576 68.474 192.206 68.397 192.822 68.299L193.753 68.159C194.061 68.117 194.376 68.117 194.684 68.096L196.525 68.012C197.134 68.012 197.743 68.061 198.338 68.082C199.513 68.1432 200.682 68.2835 201.838 68.502C202.409 68.5913 202.972 68.72 203.525 68.887C204.071 69.034 204.631 69.153 205.163 69.328L206.724 69.902L207.494 70.189L208.229 70.539L209.671 71.239C210.154 71.456 210.581 71.771 211.029 72.023C211.477 72.275 211.911 72.555 212.331 72.835L213.528 73.731C216.364 75.8922 218.753 78.5833 220.563 81.655C221.945 83.9563 222.965 86.4565 223.587 89.068C223.736 89.5665 223.852 90.0738 223.937 90.587C224.007 91.07 224.077 91.518 224.133 91.945C224.189 92.372 224.266 92.75 224.294 93.107C224.322 93.464 224.294 93.807 224.336 94.073C224.336 94.647 224.371 95.081 224.385 95.396C224.399 95.711 224.406 95.809 224.406 95.809Z" fill="#353E43"/>
<path d="M311.339 272.132C309.555 270.414 307.367 269.173 304.978 268.523C302.588 267.873 300.073 267.835 297.664 268.413C295.256 268.992 293.032 270.167 291.198 271.831C289.363 273.495 287.977 275.594 287.168 277.935L288.918 284.704C289.583 282.401 291.018 280.168 293.209 279.223C295.4 278.278 298.151 278.796 300.496 279.65C302.841 280.504 305.144 281.638 307.629 281.792C310.114 281.946 312.935 280.763 313.677 278.383C314.377 276.15 313.026 273.763 311.339 272.132Z" fill="#428E8A"/>
<g opacity="0.3">
<path d="M311.339 272.132C309.555 270.414 307.367 269.173 304.978 268.523C302.588 267.873 300.073 267.835 297.664 268.413C295.256 268.992 293.032 270.167 291.198 271.831C289.363 273.495 287.977 275.594 287.168 277.935L288.918 284.704C289.583 282.401 291.018 280.168 293.209 279.223C295.4 278.278 298.151 278.796 300.496 279.65C302.841 280.504 305.144 281.638 307.629 281.792C310.114 281.946 312.935 280.763 313.677 278.383C314.377 276.15 313.026 273.763 311.339 272.132Z" fill="black"/>
</g>
<path d="M269.192 294.7C265.538 291.2 265.692 285.187 267.54 280.49C269.388 275.793 273.343 272.181 277.781 269.808C282.117 267.53 286.913 266.264 291.809 266.105C296.704 265.947 301.572 266.899 306.047 268.891C303.857 268.986 301.723 269.616 299.833 270.726C297.942 271.837 296.353 273.394 295.204 275.261C293.202 278.586 292.754 282.618 291.102 286.132C289.236 290.089 285.926 293.181 281.852 294.775C277.777 296.368 273.247 296.341 269.192 294.7Z" fill="#428E8A"/>
<path d="M267.435 273.854C263.389 269.08 262.85 261.415 263.445 255.192C264.04 248.969 265.482 242.69 264.502 236.516C263.921 232.855 262.5 229.355 262.024 225.68C261.548 222.005 262.22 217.847 265.069 215.474C268.345 212.751 273.469 213.374 276.899 215.957C280.329 218.54 282.282 222.537 283.724 226.548C286.888 235.354 288.05 245.119 285.453 254.114C282.856 263.109 276.745 271.138 267.785 273.854" fill="#428E8A"/>
<path d="M265.489 313.026C265.478 312.842 265.478 312.657 265.489 312.473C265.489 312.116 265.489 311.584 265.524 310.898C265.573 309.498 265.706 307.545 266.014 305.116C266.371 302.266 266.89 299.438 267.568 296.646C268.403 293.218 269.703 289.921 271.432 286.846C273.155 283.77 275.273 280.932 277.732 278.404C279.733 276.338 281.951 274.493 284.347 272.902C285.355 272.202 286.335 271.67 287.147 271.18C287.959 270.69 288.764 270.354 289.38 270.06L290.836 269.444C291.003 269.366 291.176 269.302 291.354 269.255C291.196 269.349 291.032 269.433 290.864 269.507L289.464 270.172C288.862 270.487 288.12 270.872 287.266 271.341C286.412 271.81 285.474 272.391 284.466 273.098C279.204 276.694 274.838 281.45 271.705 287C267.988 293.503 266.973 300.342 266.231 305.137C265.895 307.559 265.727 309.533 265.636 310.898C265.601 311.556 265.566 312.081 265.545 312.466C265.546 312.654 265.528 312.842 265.489 313.026Z" fill="#353E43"/>
<path d="M230.608 255.024C223.125 259.539 223.146 263.648 224.399 267.526C225.652 271.404 230.244 274.099 234.045 272.643C236.201 271.824 237.762 269.955 239.092 268.072C240.422 266.189 241.675 264.18 243.537 262.829C245.399 261.478 248.115 260.967 249.984 262.304" fill="#428E8A"/>
<path d="M252.357 263.571L245.189 260.876L248.045 261.212C248.817 261.291 249.554 261.569 250.187 262.017L252.357 263.571Z" fill="black"/>
<g opacity="0.3">
<path d="M230.608 255.024C223.125 259.539 223.146 263.648 224.399 267.526C225.652 271.404 230.244 274.099 234.045 272.643C236.201 271.824 237.762 269.955 239.092 268.072C240.422 266.189 241.675 264.18 243.537 262.829C244.823 261.879 246.41 261.428 248.003 261.562L230.608 255.024Z" fill="black"/>
</g>
<path d="M225.008 259.973C226.961 257.271 231.798 256.473 234.85 257.838C237.902 259.203 240.135 261.856 242.137 264.53C244.139 267.204 246.085 270.018 248.857 271.88C251.629 273.742 255.5 274.4 258.3 272.538C259.18 271.88 259.917 271.05 260.466 270.098C261.015 269.146 261.364 268.092 261.492 267.001C261.736 264.818 261.589 262.609 261.058 260.477C260.393 257.341 259.315 254.065 256.809 252.077C254.009 249.858 250.124 249.746 246.554 249.865C242.452 249.998 238.294 250.306 234.444 251.727C230.594 253.148 226.674 256.214 225.043 259.98" fill="#428E8A"/>
<path d="M259.273 307.034C259.264 306.978 259.264 306.922 259.273 306.866C259.273 306.74 259.273 306.579 259.273 306.383C259.273 305.935 259.238 305.312 259.21 304.528C259.168 302.89 259.098 300.559 259.014 297.696C258.93 294.833 258.804 291.396 258.601 287.574C258.398 283.752 258.104 279.587 257.523 275.226C257.282 273.096 256.868 270.989 256.284 268.926C255.69 267.033 254.924 265.198 253.995 263.445C253.161 261.852 252.194 260.332 251.104 258.902C250.141 257.655 249.083 256.485 247.94 255.402C246.27 253.863 244.384 252.577 242.34 251.587C241.976 251.419 241.64 251.258 241.367 251.139L240.667 250.859L240.219 250.677C240.166 250.66 240.116 250.634 240.072 250.6C240.127 250.609 240.181 250.623 240.233 250.642L240.688 250.789L241.437 251.048C241.731 251.153 242.053 251.307 242.424 251.468C244.506 252.423 246.43 253.691 248.129 255.227C249.294 256.306 250.371 257.476 251.349 258.727C252.461 260.16 253.447 261.687 254.296 263.291C255.244 265.06 256.025 266.914 256.627 268.828C257.218 270.89 257.639 272.997 257.887 275.128C258.468 279.503 258.741 283.689 258.937 287.504C259.133 291.319 259.217 294.749 259.28 297.633C259.343 300.517 259.364 302.855 259.371 304.472V306.327C259.371 306.523 259.371 306.684 259.371 306.81C259.35 306.889 259.317 306.965 259.273 307.034Z" fill="#353E43"/>
<path d="M261.968 310.415C261.612 309.367 261.338 308.293 261.149 307.202C260.628 304.221 260.512 301.184 260.806 298.172C261.261 293.713 262.217 289.32 263.655 285.075C265.188 280.259 267.274 275.114 269.059 269.577C269.936 266.89 270.651 264.153 271.201 261.38C271.71 258.793 272.077 256.181 272.3 253.554C272.643 249.104 272.722 244.637 272.538 240.177C272.412 236.369 272.209 233.289 272.083 231.154L271.936 228.704C271.936 228.438 271.936 228.228 271.936 228.067C271.927 227.995 271.927 227.922 271.936 227.85C271.954 227.919 271.965 227.989 271.971 228.06C271.971 228.221 272.006 228.431 272.034 228.697C272.083 229.278 272.153 230.097 272.237 231.147C272.405 233.247 272.643 236.355 272.804 240.17C273.022 244.64 272.966 249.119 272.636 253.582C272.433 256.22 272.082 258.844 271.586 261.443C271.038 264.23 270.32 266.982 269.437 269.682C267.652 275.233 265.559 280.371 264.012 285.166C262.546 289.389 261.548 293.759 261.037 298.2C260.729 301.191 260.809 304.21 261.275 307.181C261.457 308.231 261.625 309.043 261.772 309.582C261.835 309.841 261.884 310.051 261.926 310.205L261.968 310.415Z" fill="#353E43"/>
<path d="M280.518 313.796H245.385L244.58 307.034H280.518V313.796Z" fill="#214353"/>
<path d="M249.151 313.026L253.547 333.312H272.636L276.745 313.026H249.151Z" fill="#214353"/>
<path d="M280.518 313.796C280.518 313.887 272.818 313.943 263.263 313.915C253.708 313.887 246.015 313.789 246.015 313.698C246.015 313.607 253.715 313.551 263.263 313.579C272.811 313.607 280.518 313.705 280.518 313.796Z" fill="#214353"/>
<path d="M274.484 323.806C273.529 323.091 272.49 322.496 271.39 322.035C270.191 321.564 268.919 321.309 267.631 321.279C266.051 321.283 264.484 321.57 263.004 322.126C261.401 322.672 259.903 323.302 258.447 323.645C257.154 323.925 255.821 323.965 254.513 323.764C253.633 323.637 252.779 323.367 251.986 322.966C251.774 322.849 251.571 322.719 251.377 322.574C251.244 322.476 251.181 322.42 251.188 322.413C251.195 322.406 251.482 322.588 252.042 322.847C252.839 323.201 253.683 323.437 254.548 323.547C255.828 323.708 257.126 323.644 258.384 323.358C259.784 323.008 261.282 322.371 262.899 321.825C264.413 321.254 266.02 320.969 267.638 320.985C268.961 321.025 270.264 321.312 271.481 321.832C272.301 322.17 273.071 322.617 273.77 323.162C273.962 323.309 274.144 323.468 274.316 323.638C274.435 323.736 274.491 323.799 274.484 323.806Z" fill="#353E43"/>
<path d="M274.218 325.164C273.298 324.47 272.302 323.883 271.25 323.414C270.096 322.942 268.864 322.688 267.617 322.665C266.09 322.669 264.576 322.942 263.144 323.47C261.597 323.988 260.141 324.59 258.755 324.961C257.528 325.315 256.25 325.459 254.975 325.388C254.113 325.336 253.27 325.11 252.497 324.723C252.29 324.612 252.091 324.485 251.902 324.345C251.776 324.254 251.713 324.198 251.72 324.191C251.727 324.184 252.014 324.359 252.553 324.604C253.324 324.937 254.15 325.122 254.989 325.15C256.234 325.189 257.478 325.026 258.671 324.667C260.029 324.282 261.471 323.673 263.039 323.155C264.507 322.616 266.06 322.345 267.624 322.357C269.775 322.421 271.848 323.18 273.532 324.52C273.715 324.664 273.891 324.818 274.057 324.982C274.169 325.094 274.225 325.157 274.218 325.164Z" fill="white"/>
<path d="M274.834 322.462C273.849 321.721 272.783 321.094 271.656 320.593C270.433 320.063 269.129 319.749 267.799 319.662C266.168 319.629 264.547 319.914 263.025 320.502C261.487 321.109 259.914 321.623 258.314 322.042C256.969 322.277 255.593 322.277 254.247 322.042C253.34 321.9 252.46 321.621 251.636 321.216C251.415 321.104 251.204 320.973 251.006 320.824C250.866 320.719 250.796 320.663 250.803 320.656C250.81 320.649 251.118 320.838 251.692 321.097C252.52 321.446 253.391 321.681 254.282 321.797C255.6 321.99 256.941 321.964 258.251 321.72C259.833 321.282 261.391 320.764 262.92 320.166C264.481 319.563 266.147 319.279 267.82 319.333C270.111 319.517 272.299 320.361 274.12 321.762C274.317 321.914 274.504 322.077 274.68 322.252C274.778 322.392 274.841 322.455 274.834 322.462Z" fill="white"/>
<path d="M280.826 313.824C280.826 313.915 272.923 313.992 263.179 313.992C253.435 313.992 245.525 313.915 245.525 313.824C245.525 313.733 253.428 313.656 263.179 313.656C272.93 313.656 280.826 313.733 280.826 313.824Z" fill="#353E43"/>
<path d="M327.964 333.312C327.964 333.41 261.352 333.494 179.207 333.494C97.062 333.494 30.436 333.41 30.436 333.312C30.436 333.214 97.034 333.13 179.207 333.13C261.38 333.13 327.964 333.2 327.964 333.312Z" fill="#353E43"/>
<path d="M106.442 324.716L104.335 293.692L121.121 295.267L119.721 325.346L111.468 325.808L106.442 324.716Z" fill="#FFBF9D"/>
<path d="M105.959 323.176V324.1C105.959 324.1 90.671 330.4 90.559 333.333L121.044 332.871L120.456 322.7C115.955 324.884 111.216 325.192 105.959 323.176Z" fill="#428E8A"/>
<g opacity="0.6">
<path d="M117.418 326.004C117.711 326.089 117.962 326.278 118.125 326.536C118.287 326.794 118.35 327.103 118.3 327.404C118.227 327.704 118.04 327.965 117.779 328.13C117.518 328.296 117.203 328.354 116.9 328.293C116.588 328.201 116.32 327.998 116.148 327.722C115.977 327.445 115.913 327.115 115.969 326.795C116.079 326.493 116.301 326.245 116.589 326.103C116.877 325.96 117.209 325.935 117.516 326.032" fill="white"/>
</g>
<g opacity="0.6">
<path d="M121.023 332.85L120.883 330.414L91.7 331.744C91.7 331.744 90.349 332.36 90.517 333.312L121.023 332.85Z" fill="white"/>
</g>
<path d="M105.861 324.163C105.861 324.317 106.61 324.373 107.352 324.863C108.094 325.353 108.493 325.948 108.626 325.885C108.759 325.822 108.528 324.968 107.625 324.415C106.722 323.862 105.826 324.03 105.861 324.163Z" fill="#353E43"/>
<path d="M102.683 325.535C102.648 325.682 103.299 325.927 103.817 326.55C104.335 327.173 104.482 327.831 104.636 327.824C104.79 327.817 104.867 326.97 104.209 326.207C103.551 325.444 102.683 325.395 102.683 325.535Z" fill="#353E43"/>
<path d="M100.926 329.392C101.059 329.392 101.255 328.692 100.863 327.866C100.471 327.04 99.764 326.739 99.708 326.865C99.652 326.991 100.079 327.418 100.408 328.09C100.737 328.762 100.8 329.378 100.926 329.392Z" fill="#353E43"/>
<path d="M140.882 303.933L122.038 279.195L136.92 271.264L152.32 297.143L145.684 302.071L140.882 303.933Z" fill="#FFBF9D"/>
<path d="M139.636 302.911L140.14 303.66C140.14 303.66 130.858 317.359 132.349 319.9L157.549 302.729L151.494 294.581C150.229 296.738 148.516 298.598 146.47 300.035C144.425 301.472 142.094 302.453 139.636 302.911Z" fill="#428E8A"/>
<g opacity="0.6">
<path d="M150.759 298.963C151.053 298.874 151.369 298.896 151.648 299.025C151.927 299.154 152.149 299.381 152.271 299.663C152.37 299.956 152.352 300.275 152.222 300.555C152.091 300.836 151.858 301.055 151.571 301.168C151.261 301.265 150.926 301.244 150.631 301.108C150.336 300.972 150.102 300.732 149.975 300.433C149.898 300.12 149.945 299.79 150.107 299.512C150.269 299.233 150.533 299.029 150.843 298.942" fill="white"/>
</g>
<g opacity="0.6">
<path d="M157.535 302.694L156.079 300.734L132.475 317.905C132.475 317.905 131.684 319.158 132.349 319.865L157.535 302.694Z" fill="white"/>
</g>
<path d="M140.098 303.8C140.189 303.919 140.84 303.555 141.715 303.541C142.59 303.527 143.262 303.821 143.346 303.695C143.43 303.569 142.758 302.995 141.694 302.995C140.63 302.995 140 303.695 140.098 303.8Z" fill="#353E43"/>
<path d="M138.201 306.684C138.257 306.824 138.901 306.684 139.699 306.908C140.497 307.132 140.973 307.608 141.099 307.524C141.225 307.44 140.826 306.684 139.86 306.411C138.894 306.138 138.124 306.6 138.201 306.684Z" fill="#353E43"/>
<path d="M138.859 310.87C138.985 310.821 138.74 310.093 137.963 309.631C137.186 309.169 136.43 309.295 136.444 309.435C136.458 309.575 137.067 309.694 137.697 310.079C138.327 310.464 138.726 310.94 138.859 310.87Z" fill="#353E43"/>
<path d="M111.762 197.47C111.762 197.47 97.202 249.382 98.182 253.113C99.162 256.844 125.027 295.169 125.762 295.407C126.497 295.645 146.944 283.451 146.944 283.451L125.762 248.535C125.762 248.535 137.557 223.286 140.994 212.135C144.431 200.984 145.096 200.41 142.961 190.253C141.666 184.093 135.891 175.847 135.891 175.847L134.96 172.998H111.097L111.762 197.47Z" fill="#353E43"/>
<path d="M96.047 172.991L94.318 179.9C91.371 182 86.954 191.905 86.709 195.867C86.464 199.829 85.512 216.111 85.484 227.367C85.442 240.415 99.946 317.905 99.946 317.905H126L116.837 194.908L114.541 172.991H96.047Z" fill="#353E43"/>
<path d="M110.929 188.559C110.924 188.658 110.91 188.757 110.887 188.853C110.845 189.063 110.796 189.35 110.726 189.714C110.572 190.484 110.348 191.59 110.068 193.004C109.459 195.86 108.549 200.004 107.352 205.051C106.155 210.098 104.699 216.16 103.264 222.901C102.564 226.268 101.864 229.817 101.276 233.52C100.636 237.33 100.264 241.18 100.163 245.042C100.1 248.997 100.408 252.91 101.787 256.396C103.089 259.756 104.604 263.029 106.323 266.196C109.571 272.265 112.854 277.543 115.731 281.883C118.608 286.223 121.1 289.618 122.885 291.9C123.795 293.041 124.495 293.923 124.985 294.49L125.552 295.155C125.621 295.228 125.682 295.307 125.734 295.393C124.68 294.311 123.682 293.176 122.745 291.991C120.918 289.716 118.391 286.328 115.486 281.995C112.581 277.662 109.277 272.398 106.001 266.322C104.261 263.159 102.732 259.886 101.423 256.522C100.023 253.022 99.701 249.011 99.771 245.042C99.8723 241.163 100.249 237.296 100.898 233.471C101.465 229.761 102.186 226.212 102.907 222.838C104.363 216.097 105.854 210.07 107.072 205.002C108.29 199.934 109.249 195.825 109.872 192.983C110.187 191.583 110.425 190.47 110.572 189.7L110.775 188.853C110.815 188.75 110.867 188.651 110.929 188.559Z" fill="#214353"/>
<path d="M141.708 191.443C141.425 191.583 141.127 191.689 140.819 191.758C139.994 191.987 139.151 192.147 138.299 192.234C135.467 192.531 132.607 192.094 129.993 190.965C127.379 189.836 125.1 188.052 123.375 185.787C122.846 185.111 122.377 184.389 121.975 183.631C121.813 183.361 121.685 183.072 121.597 182.77C121.66 182.728 122.213 183.96 123.557 185.626C125.301 187.806 127.553 189.525 130.116 190.632C132.679 191.738 135.474 192.2 138.257 191.975C140.413 191.8 141.687 191.366 141.708 191.443Z" fill="#214353"/>
<path d="M97.44 180.663C97.44 180.663 97.44 180.873 97.321 181.237C97.1811 181.747 97.008 182.247 96.803 182.735C95.4484 185.997 93.2139 188.818 90.349 190.883C89.9187 191.195 89.4699 191.48 89.005 191.737C88.8432 191.849 88.6632 191.932 88.473 191.982C88.473 191.933 89.173 191.499 90.195 190.68C92.9242 188.537 95.1071 185.779 96.565 182.63C97.125 181.426 97.384 180.642 97.44 180.663Z" fill="#214353"/>
<path d="M139.692 81.508C140.245 80.8629 140.606 80.0764 140.736 79.237C140.866 78.3975 140.759 77.5385 140.428 76.7565C140.096 75.9745 139.552 75.3006 138.859 74.8106C138.165 74.3206 137.348 74.034 136.5 73.983C136.762 73.1927 136.819 72.3485 136.665 71.5302C136.51 70.7119 136.15 69.9465 135.617 69.3062C135.085 68.6659 134.398 68.1718 133.622 67.8707C132.845 67.5695 132.005 67.4712 131.18 67.585C131.125 66.75 130.871 65.9403 130.439 65.2238C130.007 64.5072 129.409 63.9046 128.696 63.4666C127.983 63.0285 127.176 62.7677 126.341 62.706C125.507 62.6443 124.67 62.7836 123.9 63.112C123.405 62.5134 122.778 62.0373 122.068 61.7207C121.359 61.4041 120.586 61.2556 119.809 61.2867C119.033 61.3179 118.274 61.5279 117.592 61.9003C116.91 62.2728 116.324 62.7976 115.878 63.434C115.01 63.5752 114.183 63.9049 113.456 64.4C112.655 64.2601 111.83 64.3829 111.104 64.75C110.211 65.2422 109.395 65.8625 108.682 66.591C107.471 67.725 106.197 68.936 105.77 70.539C105.287 72.324 105.924 74.368 105.021 75.985C104.582 76.5643 104.193 77.1802 103.859 77.826C103.404 79.128 104.286 80.528 104.181 81.907C104.076 83.286 102.865 84.63 103.012 86.107C103.115 86.6264 103.325 87.1189 103.627 87.5537C103.929 87.9885 104.318 88.3563 104.769 88.634C105.672 89.186 106.514 89.8312 107.282 90.559C107.842 91.196 108.199 91.959 108.752 92.624C109.562 93.5123 110.681 94.0587 111.879 94.1523C113.078 94.2459 114.268 93.8797 115.206 93.128C115.848 93.6153 116.597 93.942 117.391 94.0808C118.185 94.2196 119.001 94.1665 119.77 93.926C121.305 93.4356 122.75 92.6979 124.047 91.742C124.337 92.1342 124.721 92.4477 125.163 92.6538C125.605 92.86 126.092 92.9523 126.579 92.9224C127.066 92.8925 127.537 92.7413 127.951 92.4826C128.365 92.2238 128.707 91.8658 128.947 91.441C129.168 91.9539 129.554 92.3786 130.043 92.6485C130.532 92.9184 131.097 93.0181 131.649 92.932C132.751 92.7391 133.794 92.2987 134.701 91.644C136.479 90.545 138.474 89.103 138.516 87.01C138.516 85.729 137.816 84.406 138.299 83.223C138.67 82.5812 139.14 82.0023 139.692 81.508Z" fill="#353E43"/>
<path d="M100.009 73.164C101.08 71.6704 102.45 70.4166 104.032 69.4825C105.615 68.5484 107.375 67.9546 109.2 67.739C114.275 66.878 119.917 67.739 124.04 70.819C127.82 73.619 129.92 78.302 130.508 82.992C130.711 84.644 130.214 86.233 129.752 87.829C129.037 89.6819 127.714 91.237 126 92.239C124.523 93.016 123.9 92.519 122.661 91.42C121.95 90.6861 121.397 89.8141 121.037 88.858C119.245 84.945 117.194 81.067 114.177 77.994C111.16 74.921 107.037 72.723 102.732 72.856" fill="#428E8A"/>
<path d="M122.395 80.906C121.877 79.506 122.101 77.945 121.912 76.454C121.485 73.185 118.937 70.42 115.857 69.216C112.713 68.1175 109.286 68.1373 106.155 69.272C103.788 69.9807 101.662 71.3272 100.009 73.164C98.9655 74.4248 98.2387 75.9169 97.8892 77.5157C97.5397 79.1146 97.5777 80.7738 98 82.355L114.744 80.136C116.222 81.535 117.92 82.682 119.77 83.531C120.313 83.7859 120.915 83.8898 121.513 83.832C121.81 83.8009 122.091 83.6846 122.324 83.497C122.556 83.3095 122.729 83.0587 122.822 82.775C122.867 82.1235 122.719 81.4731 122.395 80.906Z" fill="#353E43"/>
<path d="M105.742 73.878L120.288 77.161C120.968 77.2136 121.604 77.5198 122.07 78.0189C122.535 78.518 122.796 79.1736 122.801 79.856L122.22 111.433C122.19 113.586 121.452 115.67 120.12 117.362L118.72 119.14C117.98 120.081 117.018 120.823 115.92 121.298C114.822 121.774 113.622 121.968 112.43 121.864C111.238 121.76 110.09 121.36 109.091 120.701C108.092 120.042 107.273 119.145 106.708 118.09C106.567 117.826 106.459 117.547 106.386 117.257C106.327 117.027 106.285 116.793 106.26 116.557C106.028 114.975 105.962 113.372 106.064 111.776C105.959 108.976 105.931 107.807 105.931 107.835C105.931 107.863 99.967 107.002 98.532 99.288C97.832 95.452 97.832 89.131 98.042 83.958C98.168 79.289 101.094 73.5 105.742 73.878Z" fill="#FFBF9D"/>
<path d="M101.017 88.753C101.021 89.0118 101.125 89.259 101.308 89.442C101.491 89.625 101.738 89.7294 101.997 89.733C102.124 89.7406 102.251 89.7224 102.371 89.6796C102.491 89.6369 102.601 89.5703 102.694 89.4841C102.788 89.3978 102.863 89.2935 102.915 89.1775C102.967 89.0615 102.995 88.9362 102.998 88.809C102.994 88.5509 102.89 88.3045 102.706 88.1226C102.523 87.9407 102.276 87.8378 102.018 87.836C101.892 87.8284 101.765 87.8464 101.646 87.8887C101.526 87.9311 101.417 87.997 101.323 88.0825C101.23 88.168 101.155 88.2715 101.102 88.3867C101.049 88.5018 101.02 88.6264 101.017 88.753Z" fill="#353E43"/>
<path d="M99.4489 87.199C99.5749 87.325 100.317 86.744 101.381 86.723C102.445 86.702 103.25 87.213 103.362 87.073C103.474 86.933 103.285 86.786 102.935 86.548C102.467 86.2384 101.914 86.0818 101.353 86.1C100.795 86.111 100.256 86.2999 99.8129 86.639C99.4909 86.905 99.3999 87.143 99.4489 87.199Z" fill="#353E43"/>
<path d="M111.146 88.753C111.151 89.0124 111.257 89.2596 111.441 89.4424C111.626 89.6252 111.874 89.7294 112.133 89.733C112.26 89.7396 112.387 89.7208 112.506 89.6776C112.625 89.6345 112.735 89.5679 112.828 89.4818C112.921 89.3957 112.996 89.2919 113.049 89.1763C113.102 89.0608 113.13 88.9359 113.134 88.809C113.13 88.5497 113.025 88.3022 112.84 88.1201C112.655 87.938 112.406 87.836 112.147 87.836C112.021 87.8284 111.894 87.8464 111.775 87.8887C111.655 87.9311 111.546 87.997 111.452 88.0825C111.359 88.168 111.284 88.2715 111.231 88.3867C111.178 88.5018 111.15 88.6264 111.146 88.753Z" fill="#353E43"/>
<path d="M109.963 87.122C110.089 87.248 110.824 86.674 111.895 86.646C112.966 86.618 113.764 87.136 113.876 87.003C113.988 86.87 113.799 86.716 113.449 86.471C112.977 86.1637 112.422 86.0097 111.86 86.03C111.305 86.0425 110.768 86.2313 110.327 86.569C110.005 86.8 109.9 87.066 109.963 87.122Z" fill="#353E43"/>
<path d="M106.288 95.151C105.721 94.9863 105.135 94.8969 104.545 94.885C104.272 94.885 104.013 94.815 103.957 94.626C103.933 94.3455 103.988 94.0639 104.118 93.814C104.363 93.114 104.608 92.414 104.874 91.714C105.917 88.725 106.666 86.275 106.547 86.233C106.428 86.191 105.483 88.578 104.447 91.567C104.195 92.302 103.95 93.009 103.747 93.667C103.581 93.9985 103.541 94.3792 103.635 94.738C103.677 94.833 103.74 94.9175 103.818 94.9853C103.897 95.0531 103.99 95.1025 104.09 95.13C104.244 95.1653 104.401 95.1817 104.559 95.179C105.134 95.2412 105.715 95.2317 106.288 95.151Z" fill="#353E43"/>
<path d="M105.882 107.8C109.534 107.768 113.106 106.723 116.2 104.783C116.2 104.783 113.736 110.208 105.959 109.683L105.882 107.8Z" fill="#AA6550"/>
<path d="M106.806 97.713C107.003 97.4519 107.263 97.2454 107.562 97.113C107.861 96.9807 108.188 96.927 108.514 96.957C108.751 96.9698 108.982 97.0311 109.194 97.137C109.406 97.243 109.594 97.3914 109.746 97.573C109.893 97.7478 109.984 97.9636 110.005 98.1913C110.027 98.4191 109.978 98.6479 109.865 98.847C109.697 99.0442 109.474 99.1868 109.225 99.2566C108.975 99.3264 108.711 99.3203 108.465 99.239C107.95 99.0743 107.474 98.8076 107.065 98.455C106.942 98.3727 106.835 98.2683 106.75 98.147C106.71 98.0881 106.689 98.0186 106.689 97.9475C106.689 97.8764 106.71 97.807 106.75 97.748" fill="#AA6550"/>
<path d="M109.452 95.809C109.277 95.809 109.305 96.964 108.339 97.811C107.373 98.658 106.127 98.567 106.12 98.728C106.113 98.889 106.4 98.945 106.925 98.945C107.605 98.9402 108.261 98.6919 108.773 98.245C109.269 97.8215 109.58 97.2214 109.641 96.572C109.669 96.082 109.536 95.802 109.452 95.809Z" fill="#353E43"/>
<path d="M109.697 83.895C109.809 84.182 110.873 84.021 112.133 84.133C113.393 84.245 114.415 84.567 114.576 84.308C114.646 84.182 114.464 83.909 114.044 83.608C113.489 83.2789 112.867 83.0802 112.224 83.0269C111.582 82.9735 110.935 83.0669 110.334 83.3C109.9 83.524 109.648 83.762 109.697 83.895Z" fill="#353E43"/>
<path d="M99.638 82.516C99.834 82.754 100.562 82.516 101.451 82.446C102.34 82.376 103.089 82.565 103.25 82.306C103.327 82.18 103.201 81.942 102.865 81.718C102.421 81.449 101.905 81.3243 101.388 81.361C100.867 81.3851 100.366 81.5683 99.953 81.886C99.645 82.145 99.554 82.397 99.638 82.516Z" fill="#353E43"/>
<path d="M125.097 78.687C123.641 74.228 117.11 68.089 112.434 68.446L105 72.989C105.251 74.2578 105.838 75.436 106.7 76.4002C107.562 77.3645 108.667 78.0793 109.9 78.47C111.223 78.869 112.819 78.967 113.61 80.094C114.401 81.221 113.967 82.943 114.723 84.14C115.773 85.792 118.601 85.694 119.392 87.479C119.735 88.263 119.567 89.201 119.924 89.978C120.4 91.007 123.039 92.309 124.124 91.952C125.209 91.595 125.202 89.754 125.524 88.781C125.965 87.6854 126.012 86.4705 125.657 85.344C125.202 83.16 125.79 80.822 125.097 78.687Z" fill="#353E43"/>
<path d="M128.002 75.355L127.428 77.819C127.453 76.0611 127.009 74.3284 126.14 72.8C124.271 70 120.162 68.075 116.921 67.144C113.68 66.213 109.697 66.78 106.561 68.033C103.739 69.0968 101.312 71.003 99.61 73.493C97.23 76.713 96.677 81.564 98.147 82.425C99.309 79.086 101.15 75.257 104.069 73.255C105.515 72.2272 107.169 71.5285 108.914 71.208C110.659 70.8875 112.453 70.9531 114.17 71.4C117.95 72.513 120.827 75.712 122.5 79.275C123.316 81.101 123.951 83.0024 124.397 84.952C124.941 87.2415 124.924 89.6284 124.348 91.91L122.458 98.525L122.416 100.674C127.015 98.973 129.857 94.178 130.62 89.334C131.383 84.49 130.837 79.8 128.002 75.355Z" fill="#428E8A"/>
<path d="M124.131 90.062C124.096 90.062 124.257 89.663 124.376 88.935C124.529 87.9058 124.447 86.8554 124.138 85.862C123.698 84.3872 122.754 83.1137 121.471 82.264C120.683 81.8025 119.865 81.3955 119.021 81.046C118.081 80.6615 117.232 80.0844 116.529 79.352C115.929 78.5441 115.442 77.6587 115.08 76.72C114.565 75.6156 113.754 74.6756 112.737 74.0045C111.72 73.3335 110.537 72.9577 109.319 72.919C108.28 72.8964 107.249 73.1069 106.302 73.535C105.602 73.843 105.301 74.095 105.287 74.067C105.352 73.9912 105.427 73.9252 105.511 73.871C105.742 73.6958 105.988 73.5412 106.246 73.409C107.435 72.7908 108.784 72.5469 110.114 72.7093C111.445 72.8718 112.695 73.4329 113.701 74.319C114.417 74.9423 114.996 75.7074 115.402 76.566C115.757 77.4722 116.227 78.3286 116.802 79.114C117.475 79.8065 118.283 80.3544 119.175 80.724C120.03 81.0847 120.858 81.5057 121.653 81.984C122.762 82.743 123.625 83.8107 124.134 85.0549C124.643 86.299 124.775 87.6651 124.516 88.984C124.456 89.2683 124.371 89.5469 124.264 89.817C124.231 89.9042 124.186 89.9866 124.131 90.062Z" fill="#214353"/>
<path d="M123.424 81.767C123.424 81.767 123.256 81.487 122.857 81.067C122.25 80.5334 121.556 80.1073 120.806 79.807C120.344 79.59 119.819 79.359 119.287 79.044C118.697 78.7237 118.185 78.2766 117.789 77.735C116.956 76.573 116.69 75.005 115.584 73.927C114.541 72.9085 113.194 72.2594 111.748 72.079C110.574 71.9442 109.384 72.0417 108.248 72.366C107.191 72.7022 106.158 73.1067 105.154 73.577C105.385 73.3831 105.639 73.2185 105.91 73.087C106.63 72.6837 107.39 72.3576 108.178 72.114C109.355 71.7409 110.597 71.6169 111.825 71.75C113.354 71.9165 114.782 72.5949 115.878 73.675C117.075 74.858 117.334 76.475 118.097 77.539C118.86 78.603 120.057 79.1 120.953 79.576C121.718 79.9023 122.411 80.3783 122.99 80.976C123.143 81.1415 123.273 81.3276 123.375 81.529C123.403 81.683 123.438 81.76 123.424 81.767Z" fill="#214353"/>
<path d="M120.946 92.89C120.946 92.316 121.562 90.937 122.129 90.832C123.641 90.559 126.385 90.608 126.511 94.472C126.686 99.75 121.352 98.833 121.338 98.672C121.324 98.511 120.988 94.885 120.946 92.89Z" fill="#FFBF9D"/>
<path d="M122.885 96.6C122.885 96.6 122.976 96.663 123.137 96.733C123.361 96.8248 123.613 96.8248 123.837 96.733C124.176 96.5048 124.447 96.1891 124.62 95.8193C124.794 95.4495 124.865 95.0396 124.824 94.633C124.824 94.1796 124.721 93.732 124.523 93.324C124.472 93.1593 124.381 93.0096 124.259 92.8876C124.137 92.7657 123.988 92.6752 123.823 92.624C123.716 92.5991 123.604 92.6128 123.507 92.6628C123.409 92.7128 123.333 92.7958 123.291 92.897C123.221 93.044 123.256 93.149 123.228 93.156C123.2 93.163 123.116 93.072 123.151 92.855C123.178 92.7246 123.247 92.6066 123.347 92.519C123.489 92.404 123.669 92.3487 123.851 92.365C124.07 92.4008 124.275 92.4924 124.448 92.631C124.621 92.7696 124.755 92.9504 124.838 93.156C125.078 93.6041 125.205 94.1038 125.209 94.612C125.209 95.683 124.698 96.712 123.942 96.936C123.802 96.983 123.652 96.9974 123.506 96.978C123.359 96.9585 123.218 96.9059 123.095 96.824C122.899 96.761 122.864 96.642 122.885 96.6Z" fill="#AA6550"/>
<path d="M127.323 97.041C127.385 96.8529 127.467 96.6722 127.568 96.502C127.736 96.145 127.981 95.627 128.233 94.934C128.939 92.9679 129.285 90.8908 129.255 88.802C129.226 87.3616 129.077 85.9262 128.807 84.511C128.535 82.8842 128.114 81.286 127.547 79.737C126.911 78.0299 126.019 76.4296 124.901 74.991C123.692 73.4575 122.234 72.1373 120.589 71.085C117.384 69.0387 113.557 68.1931 109.788 68.698C108.155 68.9102 106.567 69.3829 105.084 70.098C103.794 70.7268 102.601 71.5378 101.542 72.506C100.003 73.9158 98.7631 75.6202 97.895 77.518C97.601 78.218 97.405 78.736 97.286 79.107C97.2327 79.2977 97.1672 79.4847 97.09 79.667C97.1129 79.4697 97.1551 79.2751 97.216 79.086C97.3658 78.5335 97.5505 77.9911 97.769 77.462C99.1787 74.1433 101.725 71.4357 104.951 69.825C106.459 69.0801 108.079 68.586 109.746 68.362C113.595 67.8207 117.511 68.6748 120.785 70.77C124.054 72.8547 126.54 75.9637 127.855 79.611C128.425 81.1825 128.844 82.8044 129.108 84.455C129.365 85.8876 129.501 87.3395 129.514 88.795C129.527 90.9095 129.137 93.0071 128.366 94.976C128.161 95.5039 127.927 96.0203 127.666 96.523C127.565 96.7043 127.451 96.8775 127.323 97.041Z" fill="#353E43"/>
<path d="M125.083 98C125.153 97.902 125.321 97.86 125.559 98C125.718 98.0896 125.856 98.2112 125.966 98.3569C126.076 98.5027 126.154 98.6695 126.196 98.847C126.269 99.1068 126.281 99.3798 126.231 99.645C126.169 99.9762 126.016 100.284 125.79 100.534C125.54 100.81 125.223 101.016 124.87 101.134C124.517 101.252 124.139 101.277 123.773 101.207C123.408 101.136 123.066 100.973 122.782 100.733C122.498 100.492 122.28 100.183 122.15 99.834C122.043 99.5701 121.993 99.2866 122.002 99.002C122.012 98.7174 122.081 98.438 122.206 98.182C122.288 98.0057 122.41 97.8508 122.561 97.7294C122.713 97.6079 122.891 97.5233 123.081 97.482C123.368 97.44 123.508 97.573 123.522 97.692C123.518 97.8283 123.492 97.9631 123.445 98.091C123.42 98.2533 123.42 98.4186 123.445 98.581C123.486 98.7731 123.567 98.9543 123.683 99.113C123.789 99.2574 123.943 99.3593 124.117 99.4C124.291 99.4296 124.47 99.4026 124.628 99.323C124.701 99.2868 124.765 99.2357 124.817 99.173C124.869 99.1103 124.907 99.0374 124.929 98.959C125.062 98.574 124.943 98.203 125.083 98Z" fill="#214353"/>
<path d="M83.657 131.068C83.657 131.068 84.532 124.068 87.927 120.519C91.322 116.97 105.98 112.455 105.98 112.455C105.98 112.455 106.078 117.621 109.48 118.832C113.078 120.113 116.578 119.434 119.217 116.375C120.792 114.46 121.841 112.168 122.262 109.725C122.262 109.725 140.014 111.37 142.772 116.025C145.53 120.68 149.1 138.642 149.1 138.642L133.266 142.002L135.422 172.991H93.352L94.178 143.913L82.719 145.544L83.657 131.068Z" fill="#214353"/>
<path d="M130.123 143.024C130.076 142.794 130.057 142.559 130.067 142.324C130.067 141.869 130.067 141.218 130.067 140.42C130.067 138.81 130.067 136.591 130.144 134.12C130.221 131.649 130.256 129.451 130.326 127.82C130.361 127.015 130.389 126.364 130.424 125.916C130.418 125.68 130.446 125.444 130.508 125.216C130.559 125.446 130.577 125.681 130.564 125.916C130.564 126.364 130.564 127.015 130.564 127.82C130.564 129.423 130.564 131.642 130.487 134.12C130.41 136.598 130.368 138.789 130.298 140.42C130.298 141.225 130.235 141.876 130.207 142.324C130.214 142.56 130.185 142.796 130.123 143.024Z" fill="#353E43"/>
<path d="M90.2999 130.27C90.3979 130.27 91.3849 133.385 92.5119 137.27C93.6389 141.155 94.4649 144.368 94.3669 144.389C93.5149 142.094 92.779 139.758 92.1619 137.389C90.9999 133.483 90.1809 130.298 90.2999 130.27Z" fill="#353E43"/>
<path d="M141.001 114.898C141.001 114.961 140.245 115.101 139.09 115.542C136.058 116.698 133.535 118.894 131.971 121.737C131.376 122.822 131.131 123.557 131.068 123.536C131.08 123.351 131.12 123.169 131.187 122.997C131.331 122.515 131.516 122.047 131.74 121.597C132.478 120.121 133.499 118.805 134.746 117.724C135.993 116.643 137.44 115.818 139.006 115.297C139.479 115.141 139.963 115.021 140.455 114.94C140.805 114.891 140.994 114.87 141.001 114.898Z" fill="#353E43"/>
<path d="M87.668 121.94C88.026 122.626 88.2762 123.362 88.41 124.124C88.6594 124.857 88.7917 125.625 88.802 126.399C88.1923 124.981 87.8096 123.477 87.668 121.94Z" fill="#353E43"/>
<path d="M146.3 139.244C146.3 139.244 141.554 163.324 141.015 165.382C140.476 167.44 139.615 172.991 133.854 174.139C126.098 175.686 95.6549 174.608 95.6549 174.608L101.395 167.335L128.037 159.866L131.677 142.366L146.3 139.244Z" fill="#FFBF9D"/>
<path d="M75.39 134.771C75.39 134.771 79.681 149.212 81.459 155.456C83.356 162.085 87.486 177.156 96.306 174.475C103.012 172.438 101.038 163.744 101.038 163.744L94.178 143.913L88.837 144.802L83.657 131.425L75.39 134.771Z" fill="#FFBF9D"/>
<path d="M98.7 164.367C98.9392 163.293 98.9392 162.179 98.7 161.105C98.4269 159.949 97.9531 158.849 97.3 157.857C96.4546 156.649 95.5186 155.507 94.5 154.441C93.478 153.361 92.5418 152.202 91.7 150.976C91.0288 149.961 90.4412 148.894 89.943 147.784C89.6122 147.037 89.327 146.27 89.089 145.488C88.9837 145.206 88.9132 144.912 88.879 144.613C89.0162 144.878 89.131 145.155 89.222 145.439C89.432 145.978 89.733 146.748 90.181 147.672C90.7013 148.754 91.3026 149.796 91.98 150.787C92.8314 151.99 93.7671 153.132 94.78 154.203C95.8108 155.288 96.7475 156.459 97.58 157.703C98.253 158.731 98.7278 159.875 98.98 161.077C99.149 161.889 99.1609 162.725 99.015 163.541C98.9693 163.76 98.9061 163.976 98.826 164.185C98.735 164.304 98.7 164.374 98.7 164.367Z" fill="#AA6550"/>
<path d="M68.236 107.639C68.236 107.639 68.936 106.659 70.665 108.171C72.394 109.683 79.387 121.562 79.933 122.654C80.479 123.746 83.657 131.425 83.657 131.425L76.573 136.444L75.39 134.771C75.39 134.771 69.447 129.5 68.236 128.044C67.1724 126.825 66.2014 125.529 65.331 124.166C65.268 123.865 64.848 122.332 66.031 121.884C66.031 121.884 64.876 120.05 65.905 119.14C66.934 118.23 68.817 119.077 68.817 119.077L62.517 110.957C62.517 110.957 61.971 108.535 63.791 109.445C65.611 110.355 70.392 117.32 71.239 117.502C72.086 117.684 72.086 116.802 72.086 116.802C72.086 116.802 67.151 109.291 68.236 107.639Z" fill="#FFBF9D"/>
<path d="M74.718 128.954C74.718 128.954 74.648 128.842 74.571 128.618C74.4528 128.29 74.373 127.949 74.333 127.603C74.2342 126.971 74.2672 126.324 74.4298 125.705C74.5924 125.086 74.8812 124.507 75.278 124.005V124.201C74.641 123.431 73.948 122.577 73.178 121.674L73.227 121.716C72.73 121.429 72.219 121.114 71.708 120.778L70.931 120.246C70.6572 120.061 70.4017 119.85 70.168 119.616C69.9434 119.389 69.809 119.088 69.79 118.769C69.7883 118.608 69.8212 118.448 69.8864 118.301C69.9516 118.154 70.0476 118.022 70.168 117.915L70.231 117.845H70.329L74.69 119.084L78.12 121.639C78.5678 121.946 78.9892 122.291 79.38 122.668C78.9068 122.406 78.4508 122.114 78.015 121.793L74.515 119.336H74.564L70.196 118.146H70.357C70.2797 118.22 70.2181 118.309 70.176 118.408C70.1339 118.507 70.1122 118.613 70.112 118.72C70.1333 118.95 70.2349 119.166 70.399 119.329C70.6141 119.544 70.8484 119.738 71.099 119.91L71.855 120.435C72.359 120.771 72.863 121.086 73.353 121.366C74.053 122.29 74.753 123.151 75.39 123.928L75.467 124.026L75.383 124.124C74.9446 124.645 74.6395 125.265 74.494 125.93C74.3769 126.444 74.3414 126.973 74.389 127.498C74.585 128.464 74.76 128.94 74.718 128.954Z" fill="#AA6550"/>
<path d="M68.922 119.476C69.1463 119.686 69.3459 119.921 69.517 120.176C70.0192 120.858 70.4707 121.577 70.868 122.325C71.1499 122.845 71.4023 123.38 71.624 123.928C71.7607 124.258 71.7948 124.621 71.722 124.971C71.6676 125.167 71.5584 125.344 71.4071 125.48C71.2558 125.617 71.0688 125.707 70.868 125.741C70.4728 125.817 70.0635 125.75 69.713 125.552C69.3647 125.371 69.0403 125.148 68.747 124.887C68.155 124.35 67.635 123.738 67.2 123.067C66.941 122.696 66.71 122.318 66.5 121.961L66.787 121.751C67.6977 122.806 68.4737 123.97 69.097 125.216C69.2524 125.514 69.3294 125.846 69.321 126.182C69.3122 126.349 69.2654 126.513 69.1841 126.66C69.1029 126.806 68.9893 126.933 68.852 127.029C68.7141 127.103 68.561 127.145 68.4046 127.151C68.2481 127.157 68.0923 127.127 67.949 127.064C67.7106 126.957 67.4908 126.813 67.298 126.637C66.7396 126.139 66.233 125.585 65.786 124.985C65.6111 124.773 65.4674 124.537 65.359 124.285C66.0117 125.048 66.7132 125.768 67.459 126.441C67.795 126.714 68.306 127.022 68.705 126.77C68.8005 126.696 68.8784 126.602 68.9329 126.494C68.9874 126.386 69.0171 126.268 69.02 126.147C69.0184 125.866 68.9488 125.59 68.817 125.342C68.1744 124.138 67.3971 123.011 66.5 121.982L66.794 121.772C67.011 122.122 67.249 122.472 67.494 122.864C67.92 123.515 68.4256 124.11 68.999 124.635C69.559 125.104 70.21 125.566 70.819 125.433C70.9611 125.411 71.0942 125.349 71.203 125.255C71.3119 125.161 71.3923 125.038 71.435 124.901C71.4929 124.613 71.4661 124.314 71.358 124.04C71.148 123.473 70.889 122.934 70.658 122.458C70.2867 121.707 69.873 120.978 69.419 120.274C69.2273 120.025 69.0608 119.758 68.922 119.476Z" fill="#AA6550"/>
<path d="M100.877 163.268C100.985 163.44 101.064 163.629 101.108 163.828C101.266 164.35 101.369 164.887 101.416 165.431C101.575 167.248 101.195 169.071 100.324 170.674C99.859 171.557 99.2723 172.37 98.5809 173.089C98.0077 173.68 97.3159 174.143 96.5509 174.447C96.0372 174.645 95.497 174.765 94.9479 174.804C94.7493 174.844 94.5446 174.844 94.3459 174.804C95.0618 174.676 95.7646 174.484 96.4459 174.23C97.1566 173.905 97.7982 173.446 98.3359 172.879C98.987 172.165 99.5466 171.372 100.002 170.52C100.835 168.97 101.231 167.223 101.15 165.466C101.094 164.094 100.8 163.289 100.877 163.268Z" fill="#AA6550"/>
</svg>
