<svg width="247" height="246" viewBox="0 0 247 246" fill="none" xmlns="http://www.w3.org/2000/svg">
<g clip-path="url(#clip0_100_2137)">
<path d="M0.5 7.6875C0.5 5.64865 1.30993 3.6933 2.75162 2.25162C4.1933 0.809931 6.14865 0 8.1875 0L54.3125 0C56.3514 0 58.3067 0.809931 59.7484 2.25162C61.1901 3.6933 62 5.64865 62 7.6875C62 9.72635 61.1901 11.6817 59.7484 13.1234C58.3067 14.5651 56.3514 15.375 54.3125 15.375H36.875C25.277 15.375 15.875 24.777 15.875 36.375V53.8125C15.875 55.8514 15.0651 57.8067 13.6234 59.2484C12.1817 60.6901 10.2264 61.5 8.1875 61.5C6.14865 61.5 4.1933 60.6901 2.75162 59.2484C1.30993 57.8067 0.5 55.8514 0.5 53.8125V7.6875ZM185 7.6875C185 5.64865 185.81 3.6933 187.252 2.25162C188.693 0.809931 190.649 0 192.688 0L238.812 0C240.851 0 242.807 0.809931 244.248 2.25162C245.69 3.6933 246.5 5.64865 246.5 7.6875V53.8125C246.5 55.8514 245.69 57.8067 244.248 59.2484C242.807 60.6901 240.851 61.5 238.812 61.5C236.774 61.5 234.818 60.6901 233.377 59.2484C231.935 57.8067 231.125 55.8514 231.125 53.8125V36.375C231.125 24.777 221.723 15.375 210.125 15.375H192.688C190.649 15.375 188.693 14.5651 187.252 13.1234C185.81 11.6817 185 9.72635 185 7.6875ZM8.1875 184.5C10.2264 184.5 12.1817 185.31 13.6234 186.752C15.0651 188.193 15.875 190.149 15.875 192.188V209.625C15.875 221.223 25.277 230.625 36.875 230.625H54.3125C56.3514 230.625 58.3067 231.435 59.7484 232.877C61.1901 234.318 62 236.274 62 238.312C62 240.351 61.1901 242.307 59.7484 243.748C58.3067 245.19 56.3514 246 54.3125 246H8.1875C6.14865 246 4.1933 245.19 2.75162 243.748C1.30993 242.307 0.5 240.351 0.5 238.312V192.188C0.5 190.149 1.30993 188.193 2.75162 186.752C4.1933 185.31 6.14865 184.5 8.1875 184.5ZM238.812 184.5C240.851 184.5 242.807 185.31 244.248 186.752C245.69 188.193 246.5 190.149 246.5 192.188V238.312C246.5 240.351 245.69 242.307 244.248 243.748C242.807 245.19 240.851 246 238.812 246H192.688C190.649 246 188.693 245.19 187.252 243.748C185.81 242.307 185 240.351 185 238.312C185 236.274 185.81 234.318 187.252 232.877C188.693 231.435 190.649 230.625 192.688 230.625H210.125C221.723 230.625 231.125 221.223 231.125 209.625V192.188C231.125 190.149 231.935 188.193 233.377 186.752C234.818 185.31 236.774 184.5 238.812 184.5ZM62 69.1875C62 64.9418 65.4418 61.5 69.6875 61.5C73.9332 61.5 77.375 64.9418 77.375 69.1875C77.375 73.4332 73.9332 76.875 69.6875 76.875C65.4418 76.875 62 73.4332 62 69.1875Z" fill="#214353"/>
<path d="M108.125 30.75H31.25V107.625H108.125V30.75ZM46.625 46.125H92.75V92.25H46.625V46.125ZM77.375 169.125H62V184.5H77.375V169.125Z" fill="#214353"/>
<path d="M108.125 138.375H31.25V215.25H108.125V138.375ZM46.625 153.75H92.75V199.875H46.625V153.75ZM169.625 61.5H185V76.875H169.625V61.5Z" fill="#214353"/>
<path d="M138.875 30.75H215.75V107.625H138.875V30.75ZM154.25 46.125V92.25H200.375V46.125H154.25ZM123.5 123V153.75H138.875V169.125H123.5V184.5H154.25V153.75H169.625V184.5H185V169.125H215.75V153.75H169.625V123H123.5ZM154.25 153.75H138.875V138.375H154.25V153.75ZM215.75 184.5H200.375V199.875H169.625V215.25H215.75V184.5ZM154.25 215.25V199.875H123.5V215.25H154.25Z" fill="#214353"/>
<path d="M185 138.375H215.75V123H185V138.375Z" fill="#214353"/>
<circle cx="69.5167" cy="69.0166" r="8.88333" fill="#214353"/>
<path d="M5.28333 123L243.767 120.95" stroke="#214353" stroke-width="7" stroke-linecap="round" stroke-linejoin="round"/>
</g>
<defs>
<clipPath id="clip0_100_2137">
<rect width="246" height="246" fill="white" transform="translate(0.5)"/>
</clipPath>
</defs>
</svg>
