<svg width="20" height="20" viewBox="0 0 20 20" fill="none" xmlns="http://www.w3.org/2000/svg">
<g clip-path="url(#clip0_81_560)">
<path d="M4.10168 13.9251L3.55918 14.5568C3.00479 14.018 2.56593 13.372 2.26936 12.6581C1.97279 11.9441 1.82472 11.1773 1.83418 10.4043C1.82165 9.69825 1.95008 8.99679 2.21195 8.34099C2.47382 7.68518 2.86386 7.08819 3.35925 6.58496C3.85465 6.08173 4.44544 5.68236 5.09706 5.41023C5.74867 5.13811 6.44802 4.99868 7.15418 5.00012H13.3658L12 3.63346L12.5883 3.04346L14.9617 5.41679L12.5883 7.79012L11.9992 7.20096L13.3667 5.83346H7.15501C6.55752 5.83332 5.96601 5.95249 5.41517 6.18397C4.86434 6.41544 4.36526 6.75457 3.94722 7.18147C3.52917 7.60836 3.20057 8.11443 2.98068 8.66999C2.76078 9.22555 2.65403 9.81943 2.66668 10.4168C2.66275 11.0673 2.78751 11.7122 3.03379 12.3143C3.28006 12.9164 3.64299 13.4638 4.10168 13.9251ZM16.435 6.27679L15.8917 6.90846C16.3507 7.36985 16.7143 7.91719 16.9616 8.51916C17.209 9.12114 17.3353 9.76597 17.3333 10.4168C17.3455 11.0147 17.2382 11.609 17.0177 12.1648C16.7972 12.7207 16.4679 13.2269 16.0492 13.6538C15.6304 14.0807 15.1306 14.4197 14.5791 14.6509C14.0276 14.8821 13.4355 15.0008 12.8375 15.0001H6.63335L8.00001 13.6335L7.41168 13.0435L5.03835 15.4168L7.41168 17.7901L8.00084 17.201L6.63335 15.8335H12.8375C13.5444 15.8357 14.2446 15.6968 14.8971 15.425C15.5496 15.1532 16.1414 14.754 16.6377 14.2506C17.134 13.7473 17.5248 13.1499 17.7874 12.4936C18.0499 11.8373 18.1789 11.1352 18.1667 10.4285C18.1738 9.65522 18.024 8.88858 17.7262 8.17496C17.4284 7.46133 16.9897 6.81557 16.435 6.27679Z" fill="#214353"/>
</g>
<defs>
<clipPath id="clip0_81_560">
<rect width="20" height="20" fill="white"/>
</clipPath>
</defs>
</svg>
