<svg width="181" height="176" viewBox="0 0 181 176" fill="none" xmlns="http://www.w3.org/2000/svg">
<g clip-path="url(#clip0_47_233)" filter="url(#filter0_d_47_233)">
<g filter="url(#filter1_f_47_233)">
<ellipse cx="90.5" cy="163.081" rx="85.7558" ry="4.36047" fill="#D9D9D9"/>
</g>
<path d="M15.369 148.365V157.15H17.3955C17.2892 156.226 17.2892 155.292 17.3955 154.367C17.588 153.335 19.7895 150.668 19.723 148.379L15.369 148.365Z" fill="#EBEBEB"/>
<path d="M31.581 148.365V157.15H33.6075C33.5012 156.226 33.5012 155.292 33.6075 154.367C33.8 153.335 36.0015 150.668 35.935 148.379L31.581 148.365Z" fill="#E0E0E0"/>
<path d="M47.45 148.365V157.15H45.42C45.5243 156.225 45.5243 155.292 45.42 154.367C45.224 153.335 43.026 150.668 43.089 148.379L47.45 148.365Z" fill="#EBEBEB"/>
<path d="M61.478 148.365V157.15H59.4515C59.5558 156.225 59.5558 155.292 59.4515 154.367C59.259 153.335 57.0575 150.668 57.124 148.379L61.478 148.365Z" fill="#E0E0E0"/>
<path d="M62.542 105.046H13.99V148.645H62.542V105.046Z" fill="#F5F5F5"/>
<path d="M49.4625 105.046L49.823 148.645H62.542V105.046H49.4625Z" fill="#E0E0E0"/>
<path d="M47.345 108.255H16.174V119.35H47.345V108.255Z" fill="#EBEBEB"/>
<path d="M47.345 121.559H16.174V132.654H47.345V121.559Z" fill="#EBEBEB"/>
<path d="M47.345 134.866H16.174V145.961H47.345V134.866Z" fill="#EBEBEB"/>
<path d="M28.123 92.519L26.779 104.997H44.006L45.434 92.519H28.123Z" fill="#E0E0E0"/>
<path d="M28.8335 93.415L27.5245 104.332H43.0715L44.328 93.415H28.8335Z" fill="white"/>
<path d="M31.448 95.2527L30.643 102.498H40.4535L40.9575 95.2527H31.448Z" fill="#EBEBEB"/>
<path d="M44.818 97.8916L48.3775 105.046L44.006 104.997L44.818 97.8916Z" fill="#EBEBEB"/>
<path d="M32.9005 114.38C32.9012 114.606 32.8349 114.827 32.7099 115.015C32.585 115.203 32.407 115.35 32.1986 115.437C31.9901 115.524 31.7606 115.547 31.5391 115.503C31.3175 115.46 31.1139 115.351 30.9539 115.192C30.794 115.032 30.685 114.829 30.6407 114.608C30.5964 114.386 30.6188 114.157 30.705 113.948C30.7913 113.739 30.9375 113.561 31.1252 113.435C31.3129 113.31 31.5337 113.243 31.7595 113.243C32.0615 113.243 32.3512 113.362 32.5651 113.576C32.7789 113.789 32.8996 114.078 32.9005 114.38Z" fill="#E0E0E0"/>
<path d="M32.9005 127.82C32.9005 128.046 32.8336 128.266 32.7082 128.454C32.5828 128.642 32.4046 128.788 32.1961 128.874C31.9876 128.961 31.7582 128.983 31.5369 128.939C31.3156 128.895 31.1122 128.787 30.9527 128.627C30.7931 128.467 30.6844 128.264 30.6404 128.043C30.5964 127.821 30.619 127.592 30.7053 127.384C30.7917 127.175 30.9379 126.997 31.1256 126.871C31.3132 126.746 31.5338 126.679 31.7595 126.679C31.9095 126.679 32.058 126.708 32.1967 126.765C32.3353 126.822 32.4613 126.906 32.5673 127.012C32.6734 127.118 32.7574 127.244 32.8146 127.383C32.8718 127.522 32.9009 127.67 32.9005 127.82Z" fill="#E0E0E0"/>
<path d="M32.9005 141.257C32.9005 141.482 32.8336 141.703 32.7082 141.891C32.5828 142.078 32.4046 142.225 32.1961 142.311C31.9876 142.397 31.7582 142.42 31.5369 142.376C31.3156 142.332 31.1122 142.223 30.9527 142.064C30.7931 141.904 30.6844 141.701 30.6404 141.479C30.5964 141.258 30.619 141.029 30.7053 140.82C30.7917 140.612 30.9379 140.433 31.1256 140.308C31.3132 140.183 31.5338 140.116 31.7595 140.116C32.0621 140.116 32.3523 140.236 32.5663 140.45C32.7803 140.664 32.9005 140.954 32.9005 141.257Z" fill="#E0E0E0"/>
<path d="M47.296 34.1705L19.7685 33.9045L20.535 69.7795L48.0625 69.881L47.296 34.1705Z" fill="#E0E0E0"/>
<path d="M45.5215 35.77L21.424 35.147L22.1205 67.683L46.211 67.9805L45.5215 35.77Z" fill="#FAFAFA"/>
<path d="M41.409 40.6315L25.4175 40.3655L25.9075 63.1085L41.8815 62.7655L41.409 40.6315Z" fill="#EBEBEB"/>
<path d="M25.9075 63.1085L41.633 51.0825L25.4175 40.3655L25.9075 63.1085Z" fill="#F5F5F5"/>
<path d="M165.754 15.4701L141.6 15.2356L142.276 46.7111L166.422 46.7986L165.754 15.4701Z" fill="#E0E0E0"/>
<path d="M164.193 16.8771L143.053 16.3276L143.665 44.8701L164.798 45.1291L164.193 16.8771Z" fill="#FAFAFA"/>
<path d="M160.584 21.14L146.559 20.9055L146.986 40.8555L161 40.558L160.584 21.14Z" fill="#EBEBEB"/>
<path d="M146.986 40.8555L160.783 30.3065L146.559 20.9055L146.986 40.8555Z" fill="#F5F5F5"/>
<path d="M138.698 133.805C138.597 134.113 142.198 147.805 142.198 147.805L144.669 147.291L141.271 133.805H138.698Z" fill="#EBEBEB"/>
<path d="M157.847 131.849L152.905 147.805H155.789L160.525 132.983L157.847 131.849Z" fill="#F5F5F5"/>
<path d="M162.376 129.378L156.713 147.805H159.597L165.053 130.512L162.376 129.378Z" fill="#EBEBEB"/>
<path d="M140.448 146.675L143.332 156.66H157.847L160.524 146.675H140.448Z" fill="#E0E0E0"/>
<path d="M147.935 146.674C147.922 146.64 147.912 146.605 147.904 146.569L147.827 146.265C147.76 145.985 147.669 145.589 147.55 145.085L146.552 140.724L143.294 126.182L143.382 126.255H140.84L140.928 126.143C142.219 131.866 143.378 136.993 144.208 140.696C144.614 142.541 144.942 144.028 145.173 145.071C145.278 145.579 145.366 145.974 145.425 146.258C145.45 146.387 145.471 146.489 145.485 146.566C145.491 146.602 145.491 146.639 145.485 146.674C145.472 146.64 145.462 146.605 145.454 146.569C145.433 146.492 145.408 146.391 145.377 146.265C145.307 145.985 145.212 145.589 145.09 145.085C144.848 144.035 144.502 142.562 144.071 140.724C143.221 137.021 142.048 131.901 140.739 126.182L140.711 126.073H143.441L143.459 126.143C144.715 131.866 145.845 136.993 146.661 140.696C147.056 142.541 147.378 144.028 147.602 145.071C147.707 145.579 147.788 145.974 147.848 146.258L147.907 146.566C147.922 146.6 147.932 146.637 147.935 146.674Z" fill="#E0E0E0"/>
<path d="M162.12 157.077C162.12 157.126 128.891 157.168 87.9205 157.168C46.9495 157.168 13.7205 157.126 13.7205 157.077C13.7205 157.028 46.9425 156.986 87.938 156.986C128.933 156.986 162.12 157.028 162.12 157.077Z" fill="#263238"/>
<path d="M152.565 61.5476C152.485 61.5138 152.402 61.488 152.317 61.4706C152.067 61.4143 151.808 61.4143 151.558 61.4706C151.152 61.5748 150.776 61.7686 150.455 62.0376C150.019 62.415 149.642 62.8549 149.335 63.3431C148.617 64.4421 148.054 65.9611 147.396 67.7321C146.635 69.7544 145.976 71.8139 145.422 73.9026C145.319 74.0953 145.181 74.2673 145.016 74.4101C144.931 74.4878 144.83 74.5461 144.72 74.5812C144.61 74.6162 144.494 74.6271 144.379 74.6131C144.154 74.5559 143.951 74.4342 143.794 74.2631C143.63 74.1126 143.476 73.9516 143.322 73.7871C143.018 73.4529 142.694 73.1374 142.352 72.8421C142.022 72.5242 141.582 72.3451 141.124 72.3416C140.895 72.3807 140.676 72.4676 140.483 72.5966C140.289 72.7256 140.125 72.894 140 73.0906C139.752 73.5158 139.618 73.9982 139.612 74.4906C139.552 75.4916 139.843 76.5031 140.018 77.5496C140.193 78.5961 140.413 79.6706 140.616 80.7661C140.721 81.3156 140.823 81.8686 140.928 82.4286L141.085 83.2756C141.134 83.4235 141.149 83.58 141.132 83.7346C141.114 83.8892 141.064 84.0382 140.984 84.1716C140.931 84.2418 140.859 84.2945 140.776 84.3226C140.693 84.3507 140.603 84.353 140.518 84.3291C140.367 84.2851 140.226 84.2126 140.102 84.1156L139.402 83.5836C138.926 83.2236 138.43 82.8894 137.918 82.5826C137.405 82.2635 136.845 82.0272 136.259 81.8826C135.969 81.8143 135.667 81.8143 135.377 81.8826C135.088 81.9556 134.833 82.1262 134.656 82.3656C134.319 82.8851 134.154 83.4972 134.183 84.1156C134.185 84.7524 134.247 85.3876 134.369 86.0126C134.621 87.2972 134.978 88.5591 135.437 89.7856C135.57 90.0991 135.672 90.425 135.741 90.7586C135.758 90.8531 135.755 90.95 135.733 91.0433C135.71 91.1366 135.669 91.2244 135.612 91.3011C135.58 91.3375 135.546 91.3714 135.51 91.4026C135.47 91.4383 135.424 91.4657 135.373 91.4831C135.267 91.4991 135.158 91.474 135.069 91.4131C134.778 91.2266 134.507 91.0108 134.26 90.7691L133.512 90.0691C133.021 89.5942 132.488 89.1654 131.919 88.7881C131.635 88.6018 131.325 88.4601 130.998 88.3681C130.843 88.32 130.68 88.3054 130.519 88.3253C130.358 88.3452 130.203 88.3992 130.064 88.4836C129.794 88.6798 129.606 88.969 129.535 89.2956C129.451 89.6297 129.409 89.973 129.41 90.3176C129.413 91.0256 129.501 91.7306 129.672 92.4176C130.018 93.8139 130.529 95.1639 131.194 96.4391C131.857 97.7465 132.614 99.004 133.459 100.202C133.882 100.809 134.338 101.393 134.824 101.952C135.293 102.533 135.769 103.11 136.245 103.702V103.723L136.161 103.688L138.387 103.366C139.125 103.278 139.857 103.152 140.581 102.988C142.01 102.666 143.413 102.244 144.781 101.724C146.131 101.225 147.418 100.568 148.614 99.7676C149.201 99.3788 149.738 98.9191 150.213 98.3991C150.448 98.1443 150.649 97.8608 150.812 97.5556C150.979 97.2668 151.034 96.9267 150.966 96.6001C150.921 96.4437 150.843 96.2988 150.737 96.1751C150.632 96.0513 150.501 95.9516 150.354 95.8826C150.049 95.7339 149.725 95.6302 149.391 95.5746C148.716 95.4725 148.033 95.4315 147.35 95.4521H146.329C145.977 95.4658 145.625 95.4435 145.278 95.3856C145.171 95.3718 145.073 95.3165 145.006 95.2316C144.98 95.1839 144.964 95.1315 144.96 95.0776C144.955 95.0299 144.955 94.9818 144.96 94.9341C144.971 94.8392 145 94.7474 145.046 94.6639C145.092 94.5805 145.155 94.5069 145.229 94.4476C145.505 94.2481 145.799 94.0758 146.108 93.9331C147.273 93.3342 148.386 92.64 149.437 91.8576C149.945 91.4785 150.414 91.0494 150.837 90.5766C151.273 90.1395 151.562 89.5764 151.662 88.9666C151.692 88.6696 151.618 88.3717 151.452 88.1231C151.285 87.8765 151.062 87.6726 150.802 87.5281C150.274 87.2379 149.703 87.0335 149.111 86.9226C148.526 86.8047 147.935 86.7194 147.34 86.6671L146.458 86.5831C146.301 86.5741 146.147 86.5324 146.006 86.4606C145.928 86.4202 145.864 86.3572 145.822 86.2798C145.78 86.2024 145.763 86.1141 145.772 86.0266C145.804 85.875 145.868 85.7318 145.959 85.6064C146.05 85.481 146.166 85.3761 146.3 85.2986L147 84.7806L148.348 83.7551L150.952 81.7776C151.788 81.1231 152.681 80.5701 153.311 79.7861C153.633 79.4196 153.855 78.9759 153.955 78.4981C153.996 78.2685 153.987 78.0329 153.931 77.8067C153.874 77.5805 153.77 77.3688 153.626 77.1856C153.473 77.0167 153.275 76.8953 153.056 76.8356C152.836 76.7703 152.609 76.7327 152.38 76.7236C151.929 76.7118 151.478 76.7281 151.029 76.7726C150.805 76.7726 150.581 76.8041 150.36 76.8076C150.131 76.8248 149.901 76.7749 149.699 76.6641C149.602 76.5987 149.521 76.5133 149.461 76.4136C149.4 76.3139 149.362 76.2024 149.349 76.0866C149.323 75.869 149.336 75.6486 149.387 75.4356C150.389 73.5377 151.295 71.5903 152.1 69.6011C152.8 67.8511 153.405 66.3461 153.622 65.0511C153.729 64.4858 153.752 63.9081 153.692 63.3361C153.647 62.9202 153.507 62.5203 153.283 62.1671C153.147 61.9509 152.963 61.7699 152.744 61.6386C152.67 61.593 152.591 61.5544 152.51 61.5231C152.594 61.5459 152.675 61.58 152.751 61.6246C152.976 61.7533 153.168 61.9331 153.311 62.1496C153.539 62.5057 153.684 62.909 153.735 63.3291C153.803 63.906 153.785 64.4898 153.682 65.0616C153.472 66.3601 152.877 67.8616 152.181 69.6116C151.392 71.6236 150.502 73.5943 149.513 75.5161C149.465 75.7129 149.453 75.917 149.479 76.1181C149.488 76.2171 149.519 76.313 149.568 76.3993C149.618 76.4856 149.685 76.5603 149.765 76.6186C149.948 76.7152 150.155 76.7577 150.36 76.7411C150.577 76.7411 150.798 76.7201 151.022 76.7026C151.477 76.6567 151.934 76.6392 152.39 76.6501C152.628 76.6595 152.863 76.6983 153.09 76.7656C153.331 76.8296 153.549 76.9593 153.72 77.1401C153.873 77.3362 153.983 77.5621 154.043 77.8031C154.104 78.0442 154.113 78.2952 154.07 78.5401C153.969 79.0415 153.737 79.5074 153.398 79.8911C152.751 80.6961 151.852 81.2561 151.022 81.9141L148.421 83.8951L147.077 84.9171L146.395 85.4386C146.28 85.5157 146.175 85.6074 146.083 85.7116C145.999 85.8116 145.944 85.9325 145.922 86.0616C145.916 86.1198 145.928 86.1784 145.956 86.2297C145.984 86.281 146.028 86.3225 146.08 86.3486C146.204 86.4085 146.338 86.443 146.475 86.4501L147.358 86.5341C147.957 86.5851 148.553 86.6704 149.142 86.7896C149.755 86.9025 150.345 87.1116 150.892 87.4091C151.172 87.5696 151.411 87.7909 151.592 88.0566C151.775 88.335 151.859 88.6665 151.831 88.9981C151.726 89.6433 151.424 90.2402 150.966 90.7061C150.531 91.1869 150.051 91.6241 149.531 92.0116C148.474 92.8018 147.353 93.5042 146.181 94.1116C145.884 94.2466 145.6 94.4108 145.335 94.6016C145.276 94.6462 145.228 94.702 145.192 94.7658C145.156 94.8295 145.133 94.8998 145.124 94.9726C145.121 95.0075 145.121 95.0427 145.124 95.0776C145.124 95.1056 145.125 95.1721 145.149 95.1686C145.194 95.2089 145.25 95.2345 145.31 95.2421C145.639 95.2952 145.971 95.3163 146.304 95.3051H147.326C148.019 95.2799 148.713 95.3209 149.398 95.4276C149.751 95.4826 150.094 95.5925 150.413 95.7531C150.582 95.8338 150.732 95.9495 150.852 96.0925C150.973 96.2355 151.062 96.4026 151.113 96.5826C151.192 96.9503 151.133 97.3345 150.945 97.6606C150.776 97.9789 150.567 98.2742 150.322 98.5391C149.838 99.0708 149.29 99.541 148.691 99.9391C147.484 100.751 146.185 101.415 144.82 101.917C143.441 102.443 142.025 102.868 140.585 103.191C139.858 103.355 139.123 103.482 138.383 103.569L136.154 103.894H136.101L136.07 103.852H136.052L134.631 102.102C134.145 101.543 133.689 100.959 133.263 100.352C132.411 99.1457 131.649 97.8788 130.981 96.5616C130.312 95.2724 129.799 93.9083 129.451 92.4981C129.274 91.8014 129.184 91.0855 129.182 90.3666C129.182 90.0055 129.227 89.6458 129.315 89.2956C129.398 88.9288 129.612 88.6051 129.917 88.3856C130.076 88.287 130.255 88.2236 130.441 88.1994C130.627 88.1753 130.816 88.191 130.995 88.2456C131.338 88.3426 131.663 88.4913 131.961 88.6866C132.539 89.0692 133.081 89.5051 133.578 89.9886L134.327 90.6886C134.565 90.9198 134.825 91.1273 135.104 91.3081C135.154 91.3441 135.214 91.3636 135.275 91.3641C135.275 91.3641 135.328 91.3326 135.352 91.3151L135.429 91.2381C135.472 91.179 135.502 91.112 135.517 91.041C135.533 90.9699 135.534 90.8965 135.52 90.8251C135.454 90.5045 135.356 90.1914 135.226 89.8906C134.766 88.6549 134.408 87.3837 134.155 86.0896C134.031 85.4543 133.969 84.8084 133.97 84.1611C133.942 83.5067 134.121 82.8602 134.481 82.3131C134.681 82.0474 134.964 81.8574 135.286 81.7741C135.6 81.7007 135.927 81.7007 136.241 81.7741C136.843 81.9163 137.418 82.1526 137.946 82.4741C138.464 82.782 138.965 83.1197 139.444 83.4856L140.144 84.0176C140.248 84.102 140.367 84.1672 140.494 84.2101C140.55 84.2266 140.611 84.2254 140.666 84.2066C140.722 84.1878 140.771 84.1524 140.806 84.1051C140.875 84.0008 140.914 83.88 140.921 83.7551C140.925 83.616 140.909 83.4771 140.875 83.3421C140.823 83.0586 140.774 82.7786 140.721 82.4986C140.616 81.9386 140.515 81.3821 140.413 80.8361C140.214 79.7371 140.015 78.6661 139.822 77.6196C139.63 76.5731 139.36 75.5581 139.419 74.5256C139.43 74.0139 139.572 73.5136 139.833 73.0731C139.967 72.8599 140.146 72.6779 140.357 72.5391C140.567 72.4003 140.805 72.308 141.054 72.2681C141.302 72.2477 141.551 72.2974 141.771 72.4116C141.986 72.5158 142.187 72.6463 142.37 72.8001C142.716 73.0992 143.043 73.4195 143.35 73.7591C143.499 73.9224 143.653 74.0799 143.812 74.2316C143.954 74.3825 144.136 74.4904 144.337 74.5431C144.436 74.5542 144.536 74.544 144.631 74.5132C144.726 74.4824 144.813 74.4317 144.887 74.3646C145.04 74.2324 145.168 74.0735 145.264 73.8956C145.825 71.8034 146.493 69.7415 147.266 67.7181C147.931 65.9506 148.505 64.4281 149.237 63.3291C149.55 62.8382 149.934 62.3969 150.378 62.0201C150.704 61.7495 151.089 61.5579 151.501 61.4601C151.755 61.4003 152.018 61.4003 152.271 61.4601C152.374 61.4723 152.473 61.5019 152.565 61.5476Z" fill="#263238"/>
<path d="M150.728 66.3076C150.722 66.3476 150.71 66.3865 150.693 66.4231L150.574 66.7521C150.458 67.0496 150.297 67.4731 150.094 68.0086C149.667 69.1111 149.062 70.6896 148.313 72.6321L142.499 87.9061C140.238 93.8561 138.166 99.2706 136.633 103.163C135.87 105.109 135.233 106.68 134.799 107.765C134.582 108.297 134.411 108.714 134.288 109.008C134.229 109.144 134.187 109.249 134.152 109.333L134.099 109.438C134.106 109.399 134.118 109.362 134.134 109.326C134.162 109.242 134.204 109.134 134.253 108.997C134.369 108.696 134.53 108.276 134.733 107.737C135.16 106.635 135.765 105.06 136.514 103.117L142.328 87.8501C144.589 81.8826 146.657 76.4891 148.194 72.5971C148.957 70.6511 149.594 69.0761 150.028 67.9946C150.245 67.4626 150.416 67.0426 150.539 66.7486C150.598 66.6156 150.64 66.5071 150.675 66.4266L150.728 66.3076Z" fill="#263238"/>
<path d="M150.917 78.4001C150.64 78.5982 150.348 78.7727 150.042 78.9216L147.9 80.1116C147.06 80.5771 146.297 80.9936 145.733 81.2771C145.437 81.4453 145.124 81.5814 144.799 81.6831C145.078 81.4886 145.37 81.3144 145.674 81.1616L147.809 79.9541C148.649 79.4886 149.415 79.0826 149.982 78.8061C150.28 78.6413 150.593 78.5054 150.917 78.4001Z" fill="#263238"/>
<path d="M144.515 81.4591C144.47 81.4801 143.637 79.8911 142.657 77.9101C141.677 75.9291 140.907 74.3051 140.96 74.2806C141.012 74.2561 141.838 75.8486 142.821 77.8296C143.805 79.8106 144.561 81.4346 144.515 81.4591Z" fill="#263238"/>
<path d="M141.456 90.7796C141.177 90.5729 140.919 90.3383 140.686 90.0796C140.231 89.6246 139.636 88.9771 138.989 88.2281C138.341 87.4791 137.816 86.7721 137.445 86.2471C137.227 85.9761 137.038 85.6828 136.882 85.3721C137.122 85.6219 137.345 85.8886 137.547 86.1701C137.946 86.6741 138.495 87.3636 139.129 88.1091C139.762 88.8546 140.35 89.5091 140.777 89.9886C141.023 90.2348 141.25 90.4992 141.456 90.7796Z" fill="#263238"/>
<path d="M147.858 89.2747C147.559 89.3941 147.25 89.4855 146.934 89.5477C146.36 89.6912 145.562 89.8767 144.68 90.0727C143.798 90.2687 142.993 90.4227 142.412 90.5487C142.1 90.6273 141.781 90.6753 141.46 90.6922C141.759 90.5737 142.068 90.4835 142.384 90.4227C142.958 90.2792 143.756 90.0727 144.641 89.8942C145.527 89.7157 146.325 89.5442 146.906 89.4217C147.218 89.3434 147.537 89.2942 147.858 89.2747Z" fill="#263238"/>
<path d="M146.202 97.8496C145.814 97.9841 145.416 98.0905 145.012 98.1681C144.27 98.3396 143.262 98.5671 142.114 98.8051C140.966 99.0431 139.948 99.2531 139.202 99.3931C138.803 99.4885 138.397 99.5528 137.988 99.5856C138.376 99.4499 138.774 99.3434 139.178 99.2671C139.916 99.0956 140.928 98.8681 142.076 98.6301C143.224 98.3921 144.239 98.1821 144.984 98.0421C145.385 97.9466 145.792 97.8822 146.202 97.8496Z" fill="#263238"/>
<path d="M138.17 99.4875C138.073 99.4199 137.984 99.3399 137.908 99.2495C137.747 99.0885 137.522 98.8505 137.246 98.5495C136.696 97.9475 135.958 97.097 135.181 96.1275C134.404 95.158 133.736 94.248 133.27 93.5795C133.036 93.247 132.853 92.974 132.731 92.7815C132.658 92.6866 132.599 92.5817 132.556 92.47C132.644 92.55 132.721 92.6405 132.787 92.7395L133.375 93.506C133.865 94.1535 134.548 95.046 135.325 96.012C136.102 96.978 136.819 97.8425 137.344 98.462C137.642 98.7853 137.917 99.1279 138.17 99.4875Z" fill="#263238"/>
<path d="M134.67 122.934C128.594 118.034 127.712 109.659 128.475 102.235C128.604 100.996 128.555 99.6766 129.22 98.6266C129.885 97.5766 131.321 96.9291 132.395 97.5276C133.288 98.0246 133.613 99.1271 134.068 100.048C134.677 101.278 135.621 102.312 136.791 103.03C137.554 103.495 138.516 103.814 139.325 103.436C140.438 102.918 140.665 101.448 140.742 100.212L141.173 93.3031C141.25 92.0641 141.334 90.8041 141.8 89.6596C142.265 88.5151 143.199 87.4826 144.386 87.2306C145.572 86.9786 146.99 87.7626 147.154 88.9806C147.166 89.4949 147.143 90.0094 147.085 90.5206C147.085 91.0351 147.284 91.6196 147.76 91.7946C148.236 91.9696 148.761 91.6581 149.16 91.3221C150.521 90.1636 151.494 88.6166 152.415 87.0731C153.335 85.5296 154.228 83.9476 155.481 82.6666C156.734 81.3856 158.403 80.4161 160.181 80.4371C161.959 80.4581 163.765 81.6796 164.094 83.4471C164.423 85.2146 163.286 86.9191 162.082 88.2526C160.294 90.2351 158.229 91.9481 155.95 93.3381C155.505 93.5388 155.137 93.8775 154.9 94.3041C154.574 95.1091 155.299 95.9806 156.093 96.3096C156.993 96.6771 158.001 96.6596 158.956 96.8311C159.912 97.0026 160.927 97.5066 161.228 98.4411C161.648 99.7396 160.5 100.989 159.401 101.787C157.211 103.379 154.764 104.584 152.166 105.35C151.232 105.62 150.256 105.844 149.479 106.432C148.702 107.02 148.183 108.101 148.568 109.001C148.953 109.9 150.07 110.261 151.018 110.149C151.967 110.037 152.87 109.578 153.801 109.298C155.551 108.773 157.728 109.043 158.701 110.583C159.348 111.598 159.32 112.945 158.879 114.083C158.388 115.187 157.68 116.182 156.797 117.009C153.885 120.057 150.216 122.277 146.164 123.442C142.132 124.537 138.464 124.656 134.642 122.955" fill="#214353"/>
<g opacity="0.1">
<path d="M134.67 122.934C128.594 118.034 127.712 109.659 128.475 102.235C128.604 100.996 128.555 99.6766 129.22 98.6266C129.885 97.5766 131.321 96.9291 132.395 97.5276C133.288 98.0246 133.613 99.1271 134.068 100.048C134.677 101.278 135.621 102.312 136.791 103.03C137.554 103.495 138.516 103.814 139.325 103.436C140.438 102.918 140.665 101.448 140.742 100.212L141.173 93.3031C141.25 92.0641 141.334 90.8041 141.8 89.6596C142.265 88.5151 143.199 87.4826 144.386 87.2306C145.572 86.9786 146.99 87.7626 147.154 88.9806C147.166 89.4949 147.143 90.0094 147.085 90.5206C147.085 91.0351 147.284 91.6196 147.76 91.7946C148.236 91.9696 148.761 91.6581 149.16 91.3221C150.521 90.1636 151.494 88.6166 152.415 87.0731C153.335 85.5296 154.228 83.9476 155.481 82.6666C156.734 81.3856 158.403 80.4161 160.181 80.4371C161.959 80.4581 163.765 81.6796 164.094 83.4471C164.423 85.2146 163.286 86.9191 162.082 88.2526C160.294 90.2351 158.229 91.9481 155.95 93.3381C155.505 93.5388 155.137 93.8775 154.9 94.3041C154.574 95.1091 155.299 95.9806 156.093 96.3096C156.993 96.6771 158.001 96.6596 158.956 96.8311C159.912 97.0026 160.927 97.5066 161.228 98.4411C161.648 99.7396 160.5 100.989 159.401 101.787C157.211 103.379 154.764 104.584 152.166 105.35C151.232 105.62 150.256 105.844 149.479 106.432C148.702 107.02 148.183 108.101 148.568 109.001C148.953 109.9 150.07 110.261 151.018 110.149C151.967 110.037 152.87 109.578 153.801 109.298C155.551 108.773 157.728 109.043 158.701 110.583C159.348 111.598 159.32 112.945 158.879 114.083C158.388 115.187 157.68 116.182 156.797 117.009C153.885 120.057 150.216 122.277 146.164 123.442C142.132 124.537 138.464 124.656 134.642 122.955" fill="black"/>
</g>
<path d="M134.194 128.45C134.777 125.024 135.687 121.661 136.91 118.409C138.424 114.44 140.164 110.562 142.121 106.792L143.644 103.817C144.148 102.841 144.645 101.875 145.191 100.958C146.242 99.2022 147.388 97.5057 148.624 95.8755C149.797 94.311 150.962 92.869 152.065 91.5285C153.167 90.188 154.224 88.963 155.232 87.885C156.816 86.1762 158.531 84.5951 160.363 83.1565C161.011 82.649 161.525 82.271 161.879 82.019L162.281 81.7355C162.326 81.7018 162.373 81.6713 162.421 81.6445C162.385 81.6864 162.342 81.7229 162.295 81.753L161.907 82.0575C161.557 82.32 161.056 82.7085 160.419 83.23C158.613 84.6898 156.919 86.2833 155.351 87.997C154.354 89.0785 153.307 90.3105 152.201 91.651C151.095 92.9915 149.944 94.451 148.782 96.005C147.552 97.6297 146.414 99.3217 145.373 101.073C144.83 101.987 144.323 102.946 143.836 103.922L142.314 106.897C140.362 110.659 138.619 114.527 137.095 118.482C135.868 121.721 134.946 125.068 134.341 128.478" fill="#263238"/>
<path d="M145.257 100.947C145.208 100.772 145.179 100.593 145.17 100.411C145.131 100.061 145.086 99.5645 145.04 98.9415C144.953 97.7025 144.886 95.9805 144.82 94.087C144.753 92.1935 144.662 90.475 144.554 89.236C144.501 88.62 144.456 88.1195 144.417 87.773C144.386 87.594 144.375 87.4119 144.386 87.2305C144.443 87.4023 144.483 87.5793 144.505 87.759C144.568 88.109 144.641 88.6025 144.715 89.222C144.865 90.4575 144.981 92.176 145.065 94.0765C145.149 95.977 145.18 97.6395 145.219 98.9345C145.243 99.519 145.261 100.009 145.278 100.404C145.289 100.586 145.282 100.767 145.257 100.947Z" fill="#263238"/>
<path d="M161.343 99.0676C161.132 99.1006 160.917 99.1124 160.703 99.1026C160.293 99.1026 159.702 99.1026 158.953 99.1516C157.49 99.2111 155.453 99.3581 153.244 99.6241C151.036 99.8901 149.02 100.216 147.578 100.496C146.857 100.629 146.276 100.755 145.873 100.846C145.667 100.9 145.456 100.936 145.243 100.954C145.44 100.871 145.644 100.805 145.852 100.758C146.248 100.646 146.825 100.499 147.546 100.342C148.981 100.023 150.987 99.6696 153.216 99.4001C155.119 99.1679 157.033 99.0335 158.95 98.9976C159.684 98.9976 160.279 98.9976 160.699 99.0186C160.915 99.0158 161.131 99.0322 161.343 99.0676Z" fill="#263238"/>
<path d="M137.127 118.122C137.085 118.06 137.054 117.993 137.032 117.922L136.798 117.327C136.598 116.813 136.329 116.057 136.01 115.122C135.37 113.25 134.565 110.635 133.714 107.741C132.864 104.846 132.087 102.225 131.485 100.342C131.191 99.4246 130.946 98.6721 130.767 98.1121L130.575 97.5065C130.548 97.4369 130.53 97.3639 130.522 97.2896C130.562 97.3518 130.594 97.4188 130.617 97.4891C130.68 97.6501 130.757 97.839 130.848 98.084C131.047 98.5985 131.317 99.3546 131.639 100.289C132.279 102.162 133.084 104.776 133.931 107.674C134.778 110.572 135.562 113.187 136.164 115.07C136.458 115.987 136.7 116.739 136.864 117.299L137.057 117.905C137.09 117.973 137.114 118.046 137.127 118.122Z" fill="#263238"/>
<path d="M158.701 112.767C158.633 112.803 158.56 112.828 158.484 112.84L157.858 113.005L155.547 113.582C153.594 114.069 150.91 114.772 147.942 115.556C144.974 116.34 142.279 117.019 140.315 117.467C139.335 117.691 138.541 117.866 137.988 117.975L137.351 118.097C137.278 118.115 137.202 118.124 137.127 118.122C137.195 118.089 137.267 118.066 137.34 118.052L137.971 117.887L140.281 117.31C142.23 116.823 144.918 116.116 147.886 115.332C150.854 114.548 153.549 113.869 155.509 113.421C156.489 113.197 157.287 113.026 157.837 112.917L158.473 112.795C158.548 112.776 158.624 112.767 158.701 112.767Z" fill="#263238"/>
<path d="M136.084 26.3164H51.2055V142.621H136.084V26.3164Z" fill="#455A64"/>
<path d="M132.727 135.705H117.009H58.2755V31.0168H132.727V122.682V135.705Z" fill="#E0E0E0"/>
<path d="M131.552 133.763H115.973H57.768V29.6345H131.552V120.81V133.763Z" fill="#EBEBEB"/>
<path d="M123.624 125.66L115.126 132.58H56.3925V29.897H130.844V119.805L123.624 125.66Z" fill="#FAFAFA"/>
<path d="M123.624 125.65C123.624 125.65 123.774 125.52 124.079 125.272L125.44 124.159L130.827 119.773V119.794C130.827 105.024 130.799 72.1945 130.775 29.8865L130.855 29.9705H57.0505H56.403L56.494 29.8795C56.494 68.4845 56.494 104.097 56.473 132.562L56.403 132.489L115.137 132.531H115.115L121.5 127.354L123.099 126.063C123.449 125.776 123.635 125.636 123.635 125.636L123.11 126.073L121.51 127.4L115.147 132.601L56.3925 132.65H56.319V132.576C56.319 104.111 56.319 68.4985 56.3015 29.8935V29.8025H57.04H130.844H130.929V29.883C130.904 72.205 130.883 105.021 130.876 119.791L125.468 124.155L124.1 125.3L123.624 125.65Z" fill="#263238"/>
<path d="M83.5735 22.7219H103.926C105.239 22.7219 106.499 23.2437 107.428 24.1725C108.357 25.1013 108.879 26.3609 108.879 27.6744V33.1659H78.4075V27.8844C78.4084 26.5149 78.9531 25.2018 79.9218 24.2338C80.8905 23.2657 82.204 22.7219 83.5735 22.7219Z" fill="#214353"/>
<path d="M85.873 22.7219L84.76 17.0869H102.306L101.329 22.7219H85.873Z" fill="#214353"/>
<path d="M76.7205 58.7999H64.18V46.2559H76.7205V58.7999ZM64.53 58.4499H76.3705V46.6059H64.53V58.4499Z" fill="#214353"/>
<path d="M121.048 49.2868C121.048 49.3358 112.315 49.3778 101.549 49.3778C90.7835 49.3778 82.0475 49.3358 82.0475 49.2868C82.0475 49.2378 90.7765 49.1958 101.549 49.1958C112.322 49.1958 121.048 49.2343 121.048 49.2868Z" fill="#263238"/>
<path d="M121.048 51.8908C121.048 51.9433 112.315 51.9818 101.549 51.9818C90.7835 51.9818 82.0475 51.9433 82.0475 51.8908C82.0475 51.8383 90.7765 51.7998 101.549 51.7998C112.322 51.7998 121.048 51.8418 121.048 51.8908Z" fill="#263238"/>
<path d="M121.048 54.4985C121.048 54.5475 112.315 54.5895 101.549 54.5895C90.7835 54.5895 82.0475 54.5475 82.0475 54.4985C82.0475 54.4495 90.7765 54.4075 101.549 54.4075C112.322 54.4075 121.048 54.4495 121.048 54.4985Z" fill="#263238"/>
<path d="M121.048 57.1059C121.048 57.1549 112.315 57.1969 101.549 57.1969C90.7835 57.1969 82.0475 57.1549 82.0475 57.1059C82.0475 57.0569 90.7765 57.0149 101.549 57.0149C112.322 57.0149 121.048 57.0499 121.048 57.1059Z" fill="#263238"/>
<path d="M76.7205 78.1304H64.18V65.5864H76.7205V78.1304ZM64.53 77.7804H76.3705V65.9364H64.53V77.7804Z" fill="#214353"/>
<path d="M66.672 72.1174L68.338 70.3289L71.1135 72.5479L77.466 66.3809L78.9885 68.1764L70.991 76.0654L66.672 72.1174Z" fill="#214353"/>
<path d="M121.048 68.6174C121.048 68.6664 112.315 68.7084 101.549 68.7084C90.7835 68.7084 82.0475 68.6664 82.0475 68.6174C82.0475 68.5684 90.7765 68.5264 101.549 68.5264C112.322 68.5264 121.048 68.5684 121.048 68.6174Z" fill="#263238"/>
<path d="M121.048 71.225C121.048 71.274 112.315 71.316 101.549 71.316C90.7835 71.316 82.0475 71.274 82.0475 71.225C82.0475 71.176 90.7765 71.134 101.549 71.134C112.322 71.134 121.048 71.1725 121.048 71.225Z" fill="#263238"/>
<path d="M121.048 73.8288C121.048 73.8813 112.315 73.9198 101.549 73.9198C90.7835 73.9198 82.0475 73.8813 82.0475 73.8288C82.0475 73.7763 90.7765 73.7378 101.549 73.7378C112.322 73.7378 121.048 73.7798 121.048 73.8288Z" fill="#263238"/>
<path d="M121.048 76.4365C121.048 76.4855 112.315 76.5275 101.549 76.5275C90.7835 76.5275 82.0475 76.4855 82.0475 76.4365C82.0475 76.3875 90.7765 76.3455 101.549 76.3455C112.322 76.3455 121.048 76.3875 121.048 76.4365Z" fill="#263238"/>
<path d="M76.7205 96.8379H64.18V84.2939H76.7205V96.8379ZM64.53 96.4879H76.3705V84.6439H64.53V96.4879Z" fill="#214353"/>
<path d="M66.672 90.8249L68.338 89.0364L71.1135 91.2554L77.466 85.0884L78.9885 86.8839L70.991 94.7729L66.672 90.8249Z" fill="#214353"/>
<path d="M121.048 87.3249C121.048 87.3739 112.315 87.4159 101.549 87.4159C90.7835 87.4159 82.0475 87.3739 82.0475 87.3249C82.0475 87.2759 90.7765 87.2339 101.549 87.2339C112.322 87.2339 121.048 87.2724 121.048 87.3249Z" fill="#263238"/>
<path d="M121.048 89.9289C121.048 89.9814 112.315 90.0199 101.549 90.0199C90.7835 90.0199 82.0475 89.9814 82.0475 89.9289C82.0475 89.8764 90.7765 89.8379 101.549 89.8379C112.322 89.8379 121.048 89.8799 121.048 89.9289Z" fill="#263238"/>
<path d="M121.048 92.5363C121.048 92.5888 112.315 92.6273 101.549 92.6273C90.7835 92.6273 82.0475 92.5888 82.0475 92.5363C82.0475 92.4838 90.7765 92.4453 101.549 92.4453C112.322 92.4453 121.048 92.4873 121.048 92.5363Z" fill="#263238"/>
<path d="M121.048 95.144C121.048 95.193 112.315 95.235 101.549 95.235C90.7835 95.235 82.0475 95.193 82.0475 95.144C82.0475 95.095 90.7765 95.053 101.549 95.053C112.322 95.053 121.048 95.095 121.048 95.144Z" fill="#263238"/>
<path d="M76.7205 114.901H64.18V102.357H76.7205V114.901ZM64.53 114.551H76.3705V102.707H64.53V114.551Z" fill="#214353"/>
<path d="M66.672 108.888L68.338 107.1L71.1135 109.319L77.466 103.152L78.9885 104.944L70.991 112.833L66.672 108.888Z" fill="#214353"/>
<path d="M121.048 105.385C121.048 105.437 112.315 105.476 101.549 105.476C90.7835 105.476 82.0475 105.437 82.0475 105.385C82.0475 105.332 90.7765 105.294 101.549 105.294C112.322 105.294 121.048 105.35 121.048 105.385Z" fill="#263238"/>
<path d="M121.048 107.992C121.048 108.041 112.315 108.083 101.549 108.083C90.7835 108.083 82.0475 108.041 82.0475 107.992C82.0475 107.943 90.7765 107.901 101.549 107.901C112.322 107.901 121.048 107.943 121.048 107.992Z" fill="#263238"/>
<path d="M121.048 110.6C121.048 110.649 112.315 110.691 101.549 110.691C90.7835 110.691 82.0475 110.649 82.0475 110.6C82.0475 110.551 90.7765 110.509 101.549 110.509C112.322 110.509 121.048 110.547 121.048 110.6Z" fill="#263238"/>
<path d="M121.048 113.204C121.048 113.256 112.315 113.295 101.549 113.295C90.7835 113.295 82.0475 113.256 82.0475 113.204C82.0475 113.151 90.7765 113.113 101.549 113.113C112.322 113.113 121.048 113.155 121.048 113.204Z" fill="#263238"/>
<path d="M117.46 115.58L109.298 132.485H115.126L117.46 115.58Z" fill="#E0E0E0"/>
<path d="M115.126 132.58L117.46 115.675L130.844 119.805L115.126 132.58Z" fill="#FAFAFA"/>
<path d="M115.126 132.58L119.627 128.873L130.788 119.735L130.82 119.889L125.65 118.3L117.45 115.755L117.558 115.685C116.858 120.585 116.26 124.803 115.837 127.792C115.413 130.7 115.196 132.202 115.137 132.58C115.135 132.554 115.135 132.528 115.137 132.503L115.168 132.272C115.196 132.051 115.234 131.743 115.287 131.351C115.395 130.529 115.549 129.349 115.745 127.851C116.151 124.838 116.718 120.599 117.38 115.647V115.549L117.474 115.577L125.696 118.111L130.862 119.707L131.023 119.756L130.893 119.861C126.375 123.504 122.423 126.689 119.595 128.961L116.295 131.61L115.413 132.31L115.189 132.489L115.126 132.58Z" fill="#263238"/>
<g opacity="0.3">
<path d="M101.091 17.0869L100.125 22.7219H101.329L102.306 17.0869H100.769" fill="black"/>
</g>
<path d="M49.7005 76.5171C50.1225 76.5489 50.5466 76.4954 50.9474 76.3597C51.3482 76.224 51.7176 76.009 52.0335 75.7274C52.3494 75.4458 52.6053 75.1035 52.786 74.7208C52.9666 74.3381 53.0683 73.9229 53.085 73.5001C53.1515 71.7851 53.211 70.0526 53.211 70.0526C53.211 70.0526 55.808 69.8111 56.011 67.2526C56.214 64.6941 56.1125 58.7511 56.1125 58.7511C54.6889 58.0328 53.0992 57.708 51.508 57.8101C49.9167 57.9123 48.3816 58.4377 47.0615 59.3321L47.219 68.3761V73.2446C47.2225 74.8616 48.073 76.3946 49.7005 76.5171Z" fill="#FFBE9D"/>
<path d="M53.435 64.1027C53.2453 63.83 52.9598 63.6389 52.6354 63.5676C52.311 63.4962 51.9716 63.5498 51.685 63.7177C51.3941 63.9198 51.1845 64.2186 51.0934 64.5609C51.0024 64.9032 51.0359 65.2668 51.188 65.5867C51.3205 65.8241 51.501 66.0313 51.7179 66.1952C51.9348 66.3591 52.1834 66.476 52.448 66.5387C52.6826 66.5897 52.8905 66.7244 53.0329 66.9177C53.1752 67.111 53.2423 67.3495 53.2215 67.5887C53.1138 68.2642 52.7981 68.8894 52.3185 69.3772C51.5257 70.1839 50.4705 70.6805 49.3435 70.7772C48.248 70.9067 46.995 70.6792 46.358 69.7797C45.8925 69.1252 45.861 68.2677 45.8435 67.4662C45.8038 65.5715 45.7642 63.6768 45.7245 61.7822C45.6833 61.0993 45.7268 60.4139 45.854 59.7417C45.988 59.0636 46.373 58.4612 46.932 58.0547C47.5585 57.6417 48.3495 57.6067 49.06 57.3792C49.9525 57.0887 50.7085 56.5007 51.5415 56.0737C52.3745 55.6467 53.393 55.3912 54.2295 55.8112C54.8315 56.1122 55.234 56.7107 55.815 57.0432C56.648 57.5157 57.7785 57.3932 58.181 58.6322C58.3227 59.0558 58.3227 59.514 58.181 59.9377C57.6175 61.6002 55.5595 62.2722 54.0755 61.5547C54.0475 61.8347 54.324 62.4612 54.0265 63.3502C53.932 63.6372 53.9005 64.0677 53.456 64.0782" fill="#263238"/>
<path d="M46.3405 58.8002C46.7484 57.9873 47.0271 57.1158 47.1665 56.2172C47.2325 55.767 47.1939 55.3078 47.0537 54.875C46.9135 54.4422 46.6754 54.0476 46.358 53.7217C45.8895 53.3148 45.2841 53.1009 44.664 53.1232C44.075 53.1567 43.5107 53.3714 43.0483 53.7379C42.5859 54.1044 42.2481 54.6048 42.081 55.1707C41.9368 55.7412 41.9591 56.341 42.1452 56.8993C42.3313 57.4575 42.6734 57.9508 43.131 58.3207C43.5989 58.6801 44.1535 58.9095 44.7386 58.9857C45.3237 59.0619 45.9186 58.9822 46.463 58.7547" fill="#263238"/>
<path d="M46.8445 57.8727C46.8256 58.1869 46.6904 58.4828 46.4652 58.7028C46.2401 58.9228 45.9411 59.0511 45.6265 59.0627C45.6265 59.0102 46.0045 58.9087 46.3265 58.5727C46.6485 58.2367 46.7955 57.8587 46.8445 57.8727Z" fill="#214353"/>
<path d="M46.001 58.5025C45.8004 58.7128 45.5632 58.8848 45.301 59.0101C45.0208 59.1698 44.7063 59.2598 44.384 59.2726C44.1794 59.2836 43.975 59.2455 43.7881 59.1615C43.6012 59.0775 43.4371 58.9499 43.3095 58.7896C43.1966 58.6207 43.1213 58.4296 43.0887 58.2291C43.0561 58.0286 43.0669 57.8235 43.1205 57.6275C43.2017 57.3166 43.3485 57.0266 43.551 56.7771C43.7186 56.5405 43.9244 56.3335 44.16 56.1646C44.0042 56.4065 43.836 56.6401 43.656 56.8646C43.4803 57.1083 43.3543 57.3842 43.285 57.6765C43.2413 57.8489 43.234 58.0285 43.2636 58.2038C43.2931 58.3792 43.3588 58.5465 43.4565 58.695C43.5684 58.8317 43.7103 58.9407 43.8711 59.0135C44.032 59.0863 44.2075 59.1211 44.384 59.115C44.6831 59.1102 44.9773 59.0385 45.245 58.9051C45.7 58.6706 45.9835 58.4745 46.001 58.5025Z" fill="#263238"/>
<path d="M41.633 61.4042C41.6858 61.4931 41.7269 61.5883 41.7555 61.6877C41.8462 61.9499 41.9748 62.1975 42.137 62.4227C42.2449 62.5855 42.3961 62.715 42.5735 62.7966C42.751 62.8782 42.9477 62.9087 43.1415 62.8847C43.3735 62.8191 43.5847 62.6948 43.7545 62.5237C43.9244 62.3527 44.0472 62.1406 44.111 61.9082C44.2367 61.4187 44.3245 60.9202 44.3735 60.4172C44.4229 59.9858 44.5927 59.5771 44.8635 59.2377C45.0574 59.0144 45.3216 58.8638 45.6125 58.8107C45.7177 58.7849 45.8285 58.7948 45.9275 58.8387C45.9275 58.8387 45.812 58.8387 45.6265 58.8807C45.3636 58.9533 45.1307 59.1078 44.9615 59.3217C44.723 59.6506 44.5768 60.0373 44.538 60.4417C44.4976 60.9568 44.4121 61.4674 44.2825 61.9677C44.2103 62.2302 44.0694 62.4688 43.8744 62.6589C43.6794 62.849 43.4373 62.9837 43.173 63.0492C42.9313 63.0878 42.6837 63.0407 42.473 62.9162C42.2982 62.8101 42.1479 62.6681 42.032 62.4997C41.8715 62.2589 41.7532 61.9926 41.682 61.7122C41.6461 61.6136 41.6295 61.509 41.633 61.4042Z" fill="#263238"/>
<path d="M40.3695 82.9957C40.3695 82.9957 39.057 92.5927 40.3695 93.8107C41.682 95.0287 42.9385 94.6227 42.9385 94.6227L45.434 92.5227L45.924 82.9817L40.3695 82.9957Z" fill="#FFBE9D"/>
<path d="M67.477 56.0561L69.143 54.2676L71.9185 56.4866L78.271 50.3196L79.7935 52.1151L71.796 60.0041L67.477 56.0561Z" fill="#214353"/>
<path d="M75.303 56.5425L72.888 58.093C72.7795 57.1375 72.0515 56.1925 72.0865 56.672C72.1215 57.1515 72.0865 59.64 72.0865 59.64L67.785 68.7015C67.2005 70.1365 66.014 71.0395 65.1285 71.253L61.1 72.45L62.6715 77.7665L68.2715 75.9115C68.9863 75.6746 69.6356 75.2736 70.1674 74.7406C70.6993 74.2075 71.0988 73.5573 71.334 72.842L75.184 61.11C75.4397 60.3543 75.6454 59.5826 75.8 58.8C75.968 57.8165 75.303 56.5425 75.303 56.5425Z" fill="#FFBE9D"/>
<path d="M55.5175 155.652L55.4545 152.968L50.4215 153.048L50.467 156.979L50.782 156.996C52.182 157.049 57.8555 157.175 58.7795 156.881C59.8085 156.548 55.5175 155.652 55.5175 155.652Z" fill="#214353"/>
<g opacity="0.5">
<path d="M52.294 156.912C52.2092 156.493 51.9739 156.12 51.6325 155.862C51.2963 155.601 50.8739 155.476 50.4495 155.512L50.4705 156.912H52.294Z" fill="white"/>
</g>
<g opacity="0.4">
<path d="M57.6 156.167C57.6 156.167 59.105 156.573 58.923 156.825C58.741 157.077 52.994 157.175 50.453 156.979V156.867L57.159 156.821C57.159 156.821 57.3235 156.184 57.6 156.167Z" fill="white"/>
</g>
<path d="M50.3935 156.863H50.481H50.7295L51.6465 156.888C52.42 156.905 53.4875 156.912 54.667 156.888C55.8465 156.863 56.9175 156.832 57.6875 156.793L58.6045 156.741L58.853 156.723H58.937H58.8495H58.601L57.6875 156.758C56.914 156.783 55.8465 156.818 54.667 156.835C53.4875 156.853 52.42 156.835 51.6465 156.835H50.733H50.383L50.3935 156.863Z" fill="#263238"/>
<path d="M57.18 156.898C57.2164 156.746 57.2717 156.599 57.3445 156.461C57.4326 156.333 57.5348 156.216 57.649 156.111C57.5001 156.181 57.3757 156.294 57.292 156.436C57.2083 156.577 57.1693 156.741 57.18 156.905V156.898Z" fill="#263238"/>
<path d="M55.682 156.167C55.682 156.167 55.766 156.09 55.8395 155.974C55.913 155.859 55.955 155.754 55.941 155.747C55.927 155.74 55.857 155.824 55.787 155.939C55.717 156.055 55.668 156.16 55.682 156.167Z" fill="#263238"/>
<path d="M55.2725 155.96C55.2725 155.96 55.36 155.918 55.4475 155.837C55.535 155.757 55.591 155.683 55.5805 155.673C55.57 155.662 55.4895 155.715 55.4055 155.792C55.3215 155.869 55.2585 155.946 55.2725 155.96Z" fill="#263238"/>
<path d="M55.0065 155.487C55.0904 155.518 55.1805 155.528 55.269 155.515C55.3578 155.526 55.4477 155.515 55.5315 155.484C55.4468 155.457 55.3575 155.448 55.269 155.456C55.1802 155.446 55.0904 155.457 55.0065 155.487Z" fill="#263238"/>
<path d="M54.912 155.155C55.0004 155.209 55.1023 155.237 55.206 155.236C55.3098 155.251 55.4156 155.235 55.5105 155.19C55.4104 155.18 55.3096 155.18 55.2095 155.19C55.1116 155.169 55.012 155.158 54.912 155.155Z" fill="#263238"/>
<path d="M55.85 155.726C55.9565 155.745 56.0656 155.745 56.172 155.726C56.2909 155.71 56.4081 155.683 56.522 155.645C56.59 155.624 56.6557 155.596 56.718 155.561C56.7377 155.551 56.7551 155.536 56.7689 155.519C56.7828 155.501 56.7929 155.481 56.7985 155.46C56.8026 155.435 56.7999 155.41 56.7906 155.387C56.7814 155.365 56.7659 155.345 56.746 155.33C56.6213 155.272 56.4805 155.259 56.3473 155.293C56.2141 155.327 56.0966 155.405 56.0145 155.516C55.9674 155.581 55.933 155.655 55.913 155.733C55.9069 155.761 55.9069 155.791 55.913 155.82C55.9465 155.721 55.9949 155.628 56.0565 155.544C56.1287 155.458 56.2232 155.394 56.3295 155.358C56.4568 155.314 56.5962 155.322 56.718 155.379C56.767 155.418 56.7495 155.477 56.6935 155.512C56.6355 155.545 56.5746 155.572 56.5115 155.593C56.3974 155.632 56.2804 155.662 56.1615 155.684C55.969 155.715 55.85 155.715 55.85 155.726Z" fill="#263238"/>
<path d="M55.9305 155.75C55.9699 155.682 55.9824 155.603 55.9655 155.526C55.9523 155.442 55.92 155.362 55.871 155.292C55.8433 155.244 55.8041 155.205 55.7569 155.176C55.7098 155.148 55.6563 155.133 55.6015 155.131C55.5851 155.134 55.5696 155.14 55.5557 155.15C55.5419 155.159 55.5301 155.171 55.521 155.185C55.5119 155.199 55.5056 155.215 55.5026 155.231C55.4996 155.248 55.4999 155.265 55.5035 155.281C55.5113 155.333 55.5304 155.382 55.5595 155.425C55.602 155.496 55.6551 155.561 55.717 155.617C55.7669 155.675 55.8307 155.72 55.9025 155.747C55.9025 155.747 55.8395 155.691 55.7485 155.589C55.6961 155.529 55.6492 155.465 55.6085 155.397C55.563 155.33 55.5315 155.208 55.6085 155.19C55.6855 155.173 55.773 155.26 55.822 155.323C55.8689 155.386 55.9022 155.457 55.92 155.533C55.9297 155.605 55.9332 155.678 55.9305 155.75Z" fill="#263238"/>
<path d="M50.4775 155.484C50.4775 155.484 50.621 155.484 50.8485 155.484C51.1453 155.512 51.428 155.624 51.664 155.806C51.9 155.988 52.0796 156.233 52.182 156.513C52.2625 156.726 52.273 156.863 52.2835 156.863C52.2904 156.83 52.2904 156.795 52.2835 156.762C52.2721 156.67 52.2522 156.58 52.224 156.492C52.1269 156.2 51.9442 155.943 51.6996 155.756C51.4549 155.569 51.1596 155.459 50.852 155.442C50.7601 155.432 50.6674 155.432 50.5755 155.442C50.5404 155.449 50.5071 155.464 50.4775 155.484Z" fill="#263238"/>
<path d="M50.9675 153.384C50.9362 153.727 50.9269 154.072 50.9395 154.417C50.9283 154.767 50.9389 155.118 50.971 155.467C51.0028 155.117 51.0122 154.767 50.999 154.417C51.0074 154.072 50.9969 153.727 50.9675 153.384Z" fill="#263238"/>
<path d="M52.917 156.412C53.1598 156.462 53.4078 156.482 53.6555 156.471C53.9026 156.482 54.1499 156.458 54.3905 156.401C54.3905 156.384 54.0405 156.401 53.6555 156.401C53.2705 156.401 52.9205 156.394 52.917 156.412Z" fill="#263238"/>
<path d="M51.9335 156.422C51.9335 156.422 51.9615 156.492 51.993 156.569C52.0245 156.646 52.049 156.709 52.0665 156.709C52.084 156.709 52.091 156.628 52.049 156.541C52.007 156.453 51.944 156.411 51.9335 156.422Z" fill="#263238"/>
<path d="M51.552 155.967C51.552 155.967 51.573 156.03 51.629 156.083C51.685 156.135 51.734 156.167 51.7445 156.156C51.755 156.146 51.7235 156.09 51.671 156.041C51.6185 155.992 51.566 155.953 51.552 155.967Z" fill="#263238"/>
<path d="M51.0165 155.75C51.0165 155.75 51.09 155.75 51.1635 155.788C51.237 155.827 51.2895 155.851 51.3035 155.841C51.3175 155.83 51.2755 155.76 51.181 155.732C51.0865 155.704 51.013 155.75 51.0165 155.75Z" fill="#263238"/>
<path d="M50.6385 155.67C50.6385 155.67 50.6595 155.712 50.7015 155.726C50.7435 155.74 50.782 155.743 50.789 155.726C50.796 155.708 50.7645 155.684 50.7225 155.67C50.6805 155.656 50.642 155.652 50.6385 155.67Z" fill="#263238"/>
<path d="M37.7515 154.795L39.4595 152.719L35.5885 149.496L33.0615 152.506L33.2855 152.723C34.304 153.671 38.5355 157.472 39.4245 157.85C40.422 158.274 37.7515 154.795 37.7515 154.795Z" fill="#214353"/>
<g opacity="0.5">
<path d="M34.5 153.65C34.7141 153.276 34.7827 152.836 34.6925 152.415C34.6067 151.998 34.3667 151.629 34.0205 151.382L33.1 152.457L34.5 153.65Z" fill="white"/>
</g>
<g opacity="0.4">
<path d="M39.008 156.552C39.008 156.552 39.883 157.843 39.582 157.913C39.281 157.983 34.85 154.301 33.0615 152.506L33.1385 152.425L38.252 156.765C38.252 156.765 38.7735 156.373 39.008 156.552Z" fill="white"/>
</g>
<path d="M33.079 152.373L33.1385 152.436L33.3205 152.607L33.9995 153.223C34.5735 153.738 35.3785 154.441 36.285 155.197C37.1915 155.953 38.035 156.622 38.637 157.098L39.365 157.654L39.5645 157.801L39.638 157.85L39.5715 157.791L39.379 157.633L38.679 157.063C38.0735 156.58 37.244 155.908 36.3375 155.152C35.431 154.396 34.6225 153.699 34.0415 153.192L33.3415 152.59L33.1525 152.425L33.079 152.373Z" fill="#263238"/>
<path d="M38.1995 156.825C38.3271 156.732 38.4658 156.655 38.6125 156.597C38.7638 156.559 38.9186 156.535 39.0745 156.527C38.9186 156.47 38.7474 156.47 38.5915 156.527C38.4291 156.576 38.2899 156.681 38.1995 156.825Z" fill="#263238"/>
<path d="M37.5415 155.292C37.5415 155.309 37.657 155.292 37.7865 155.246C37.916 155.201 38.021 155.159 38.014 155.141C38.007 155.124 37.8985 155.141 37.769 155.187C37.6865 155.205 37.6089 155.241 37.5415 155.292Z" fill="#263238"/>
<path d="M37.3665 154.865C37.3665 154.865 37.461 154.893 37.58 154.889C37.699 154.886 37.79 154.868 37.79 154.851C37.79 154.833 37.692 154.823 37.5765 154.826C37.5045 154.823 37.4326 154.836 37.3665 154.865Z" fill="#263238"/>
<path d="M37.4715 154.35C37.4715 154.35 37.5415 154.448 37.6535 154.543C37.7167 154.606 37.7915 154.658 37.874 154.693C37.874 154.693 37.804 154.592 37.692 154.497C37.58 154.403 37.4855 154.322 37.4715 154.35Z" fill="#263238"/>
<path d="M37.6185 154.021C37.6566 154.117 37.7147 154.204 37.7889 154.276C37.8631 154.347 37.9518 154.403 38.049 154.437C37.9812 154.364 37.9087 154.295 37.832 154.231C37.7165 154.119 37.65 154 37.6185 154.021Z" fill="#263238"/>
<path d="M37.9545 155.05C38.0239 155.134 38.1082 155.204 38.203 155.257C38.3023 155.321 38.4078 155.375 38.518 155.418C38.5831 155.447 38.6511 155.469 38.721 155.484C38.765 155.492 38.8103 155.482 38.847 155.456C38.8663 155.441 38.8809 155.421 38.8889 155.398C38.897 155.375 38.8983 155.35 38.8925 155.327C38.8385 155.199 38.7414 155.094 38.618 155.03C38.4946 154.966 38.3527 154.947 38.217 154.977C38.1371 154.992 38.0617 155.026 37.9965 155.075C37.972 155.09 37.9506 155.111 37.9335 155.134C38.0232 155.08 38.1214 155.041 38.224 155.019C38.3351 155 38.4493 155.013 38.553 155.057C38.6777 155.105 38.7784 155.201 38.833 155.323C38.833 155.386 38.7945 155.421 38.728 155.411C38.6635 155.396 38.6002 155.376 38.539 155.351C38.4312 155.311 38.3269 155.262 38.2275 155.204C38.056 155.138 37.9615 155.05 37.9545 155.05Z" fill="#263238"/>
<path d="M38 155.131C38 155.131 38.091 155.103 38.175 154.984C38.2201 154.911 38.2488 154.83 38.259 154.746C38.267 154.691 38.262 154.635 38.2444 154.583C38.2267 154.531 38.197 154.483 38.1575 154.445C38.1273 154.428 38.092 154.425 38.0592 154.435C38.0264 154.445 37.9988 154.467 37.9825 154.497C37.9559 154.541 37.9392 154.59 37.9335 154.641C37.9233 154.723 37.9233 154.807 37.9335 154.889C37.9335 154.966 37.9527 155.042 37.9895 155.11C37.9895 155.11 37.9895 155.022 37.9895 154.889C37.9885 154.809 37.9956 154.729 38.0105 154.651C38.0105 154.571 38.0735 154.459 38.147 154.497C38.2205 154.536 38.224 154.658 38.224 154.739C38.2178 154.816 38.1951 154.891 38.1575 154.959C38.1115 155.022 38.0587 155.079 38 155.131Z" fill="#263238"/>
<path d="M34.0415 151.382C34.0415 151.382 34.1605 151.463 34.318 151.627C34.523 151.844 34.6646 152.113 34.7275 152.404C34.7855 152.697 34.7612 152.999 34.6575 153.279C34.577 153.496 34.4895 153.612 34.5 153.629C34.5263 153.606 34.5488 153.579 34.5665 153.549C34.6187 153.473 34.6621 153.392 34.696 153.307C34.817 153.022 34.8487 152.707 34.787 152.404C34.7238 152.101 34.5714 151.825 34.3495 151.61C34.2834 151.545 34.2106 151.488 34.1325 151.438C34.106 151.414 34.0752 151.395 34.0415 151.382Z" fill="#263238"/>
<path d="M35.7845 150.104C35.5359 150.346 35.3021 150.602 35.0845 150.871C34.8535 151.128 34.6362 151.396 34.4335 151.676C34.6837 151.438 34.9176 151.183 35.1335 150.913C35.3641 150.655 35.5814 150.385 35.7845 150.104Z" fill="#263238"/>
<path d="M35.2875 153.675C35.4371 153.871 35.6112 154.047 35.8055 154.2C35.9872 154.368 36.1909 154.512 36.411 154.627C36.411 154.627 36.1555 154.417 35.8475 154.154C35.5395 153.892 35.3015 153.65 35.2875 153.675Z" fill="#263238"/>
<path d="M34.5315 153.041C34.5315 153.041 34.507 153.111 34.486 153.192C34.465 153.272 34.4335 153.332 34.4475 153.342C34.4615 153.353 34.5175 153.3 34.5455 153.206C34.5735 153.111 34.549 153.038 34.5315 153.041Z" fill="#263238"/>
<path d="M34.542 152.446C34.5245 152.446 34.5175 152.509 34.5245 152.583C34.5315 152.656 34.549 152.716 34.5665 152.716C34.584 152.716 34.591 152.653 34.5665 152.579C34.542 152.506 34.5595 152.446 34.542 152.446Z" fill="#263238"/>
<path d="M34.269 151.942C34.269 151.96 34.3145 152.002 34.353 152.068C34.3915 152.135 34.409 152.201 34.4265 152.201C34.444 152.201 34.4545 152.121 34.4055 152.037C34.3565 151.953 34.276 151.928 34.269 151.942Z" fill="#263238"/>
<path d="M34.0415 151.624C34.0415 151.624 34.0415 151.673 34.0415 151.711C34.0415 151.75 34.094 151.774 34.108 151.767C34.122 151.76 34.108 151.718 34.108 151.68C34.108 151.641 34.0555 151.617 34.0415 151.624Z" fill="#263238"/>
<path d="M48.227 98.5565C48.227 98.5565 46.5505 105.647 47.0265 107.051C47.5025 108.454 50.572 109.263 50.572 109.263L50.467 128.684L33.485 149.684L39.75 154.808C39.75 154.808 58.139 133.777 59.7595 129.958C61.38 126.14 58.7095 98.231 58.7095 98.231L48.227 98.5565Z" fill="#263238"/>
<path d="M56.9 95.6655L57.7295 154.648L49.095 154.7L44.7585 106.652C43.8415 105.777 42.55 104.279 42.7285 100.937L42.9385 97.055L56.9 95.6655Z" fill="#263238"/>
<path d="M47.8 131.968C47.8126 131.936 47.8291 131.907 47.849 131.88C47.8945 131.817 47.947 131.737 48.0135 131.639L48.654 130.732L50.999 127.484V127.53C50.81 125.482 50.5825 123.001 50.3375 120.323C50.0225 116.823 49.7705 113.638 49.62 111.332C49.543 110.18 49.494 109.249 49.466 108.605C49.466 108.297 49.445 108.049 49.4415 107.86C49.4308 107.774 49.4308 107.687 49.4415 107.601C49.4584 107.686 49.469 107.773 49.473 107.86C49.473 108.045 49.508 108.294 49.5325 108.602C49.585 109.263 49.655 110.187 49.746 111.325C49.928 113.624 50.201 116.799 50.516 120.306C50.7505 122.994 50.9885 125.472 51.146 127.53V127.554V127.575L48.7485 130.781L48.073 131.667L47.891 131.894C47.8175 131.95 47.8 131.971 47.8 131.968Z" fill="#455A64"/>
<path d="M50.446 107.601C49.6734 107.56 48.9066 107.442 48.157 107.251C47.3944 107.122 46.6465 106.918 45.924 106.642C46.6891 106.74 47.4476 106.883 48.1955 107.072C48.9551 107.205 49.7065 107.382 50.446 107.601Z" fill="#455A64"/>
<path d="M56.361 127.75C55.6157 127.441 54.8313 127.236 54.03 127.141C53.2227 127.109 52.4148 127.188 51.629 127.376C51.8342 127.246 52.0623 127.157 52.301 127.113C52.8716 126.964 53.4632 126.912 54.051 126.959C54.6351 127.006 55.2075 127.149 55.745 127.383C55.9707 127.467 56.1793 127.592 56.361 127.75Z" fill="#455A64"/>
<path d="M59.4095 130.473C59.448 130.505 57.019 133.767 53.981 137.757C50.943 141.747 48.4475 144.963 48.409 144.935C48.3705 144.907 50.7995 141.642 53.8375 137.648C56.8755 133.655 59.371 130.442 59.4095 130.473Z" fill="#455A64"/>
<path d="M58.2405 100.044C58.141 100.3 57.9726 100.523 57.754 100.688C57.5039 100.907 57.2112 101.072 56.8943 101.173C56.5773 101.273 56.2431 101.307 55.9124 101.272C55.5818 101.238 55.2619 101.135 54.9729 100.97C54.6839 100.806 54.432 100.584 54.233 100.317C54.0478 100.113 53.9262 99.8583 53.883 99.5857C54.0177 99.8096 54.165 100.026 54.324 100.233C54.724 100.718 55.2985 101.026 55.9237 101.092C56.5488 101.157 57.1747 100.975 57.6665 100.583C57.8671 100.414 58.0587 100.234 58.2405 100.044Z" fill="#455A64"/>
<path d="M46.435 69.6956C45.0122 68.3437 44.1733 66.4899 44.0968 64.5288C44.0203 62.5676 44.7123 60.6541 46.0255 59.1956" fill="#263238"/>
<path d="M41.5805 75.1975C41.5805 75.1975 39.7045 77.3185 39.316 85.428C39.316 85.428 44.6605 86.443 44.7585 86.1525C44.8565 85.862 41.5805 75.1975 41.5805 75.1975Z" fill="#214353"/>
<g opacity="0.3">
<path d="M41.5805 75.1975C41.5805 75.1975 39.7045 77.3185 39.316 85.428C39.316 85.428 44.6605 86.443 44.7585 86.1525C44.8565 85.862 41.5805 75.1975 41.5805 75.1975Z" fill="black"/>
</g>
<path d="M42.4485 98.8191H58.86L58.594 96.2536C58.594 96.2536 56.718 86.5026 56.732 86.3731L57.026 85.7536C57.4095 84.9492 57.6146 84.0714 57.6272 83.1804C57.6399 82.2893 57.4599 81.4061 57.0995 80.5911L65.1495 77.8436L63.1825 71.2146C59.5355 71.8271 54.023 72.5166 54.023 72.5166L53.204 72.5831C53.204 72.5831 47.513 72.8806 47.3905 72.8946C45.0105 73.1851 42.242 73.3671 41.2305 75.9151C40.688 77.2766 41.2025 79.3206 42.088 81.4276L44.188 87.9026C45.028 91.4621 43.6875 91.2906 42.949 94.8746C42.83 95.4136 42.438 98.3221 42.4485 98.8191Z" fill="#214353"/>
<g opacity="0.3">
<path d="M42.4485 98.8191H58.86L58.594 96.2536C58.594 96.2536 56.718 86.5026 56.732 86.3731L57.026 85.7536C57.4095 84.9492 57.6146 84.0714 57.6272 83.1804C57.6399 82.2893 57.4599 81.4061 57.0995 80.5911L65.1495 77.8436L63.1825 71.2146C59.5355 71.8271 54.023 72.5166 54.023 72.5166L53.204 72.5831C53.204 72.5831 47.513 72.8806 47.3905 72.8946C45.0105 73.1851 42.242 73.3671 41.2305 75.9151C40.688 77.2766 41.2025 79.3206 42.088 81.4276L44.188 87.9026C45.028 91.4621 43.6875 91.2906 42.949 94.8746C42.83 95.4136 42.438 98.3221 42.4485 98.8191Z" fill="black"/>
</g>
<path d="M65.0585 77.9521C64.9475 78.0146 64.8302 78.0651 64.7085 78.1026C64.4775 78.1866 64.138 78.3021 63.718 78.4526C62.878 78.7361 61.709 79.1107 60.421 79.5237C59.133 79.9366 57.971 80.3461 57.166 80.6821C56.753 80.8501 56.4275 80.9971 56.2 81.0951C56.0897 81.1563 55.9721 81.2033 55.85 81.2351C55.9517 81.1543 56.062 81.0851 56.179 81.0286C56.3995 80.9131 56.718 80.7451 57.124 80.5631C58.185 80.1007 59.2705 79.6965 60.3755 79.3521C61.667 78.9391 62.8255 78.5821 63.69 78.3301C64.1135 78.2041 64.46 78.1061 64.698 78.0396C64.8141 77.9956 64.9352 77.9662 65.0585 77.9521Z" fill="#263238"/>
<path d="M64.1065 74.4206C64.1065 74.4696 59.252 74.5116 53.2565 74.5116C47.261 74.5116 42.4065 74.4696 42.4065 74.4206C42.4065 74.3716 47.2575 74.3296 53.2565 74.3296C59.2555 74.3296 64.1065 74.3716 64.1065 74.4206Z" fill="#FAFAFA"/>
<path d="M64.6 77.644C64.6 77.693 59.1995 77.735 52.539 77.735C45.8785 77.735 40.4815 77.693 40.4815 77.644C40.4815 77.595 45.8785 77.553 52.539 77.553C59.1995 77.553 64.6 77.595 64.6 77.644Z" fill="#FAFAFA"/>
<path d="M41.85 81.3122C41.5219 81.4012 41.1807 81.432 40.842 81.4032C40.5044 81.4318 40.1644 81.401 39.8375 81.3122C40.1644 81.2233 40.5044 81.1925 40.842 81.2212C41.1807 81.1923 41.5219 81.2231 41.85 81.3122Z" fill="#FAFAFA"/>
<path d="M57.6 81.424C57.6 81.473 54.0685 81.515 49.7145 81.515C45.3605 81.515 41.829 81.473 41.829 81.424C41.829 81.375 45.357 81.333 49.7145 81.333C54.072 81.333 57.6 81.3715 57.6 81.424Z" fill="#FAFAFA"/>
<path d="M57.25 85.2006C57.25 85.2531 54.079 85.2916 50.173 85.2916C46.267 85.2916 43.0925 85.2531 43.0925 85.2006C43.0925 85.1481 46.26 85.1096 50.173 85.1096C54.086 85.1096 57.25 85.1516 57.25 85.2006Z" fill="#FAFAFA"/>
<path d="M57.152 88.704C57.152 88.753 54.282 88.795 50.74 88.795C47.198 88.795 44.321 88.753 44.321 88.704C44.321 88.655 47.1945 88.613 50.74 88.613C54.2855 88.613 57.152 88.6515 57.152 88.704Z" fill="#FAFAFA"/>
<path d="M57.7155 91.5356C57.7155 91.5881 54.6425 91.6266 50.852 91.6266C47.0615 91.6266 43.9885 91.5881 43.9885 91.5356C43.9885 91.4831 47.0615 91.4446 50.852 91.4446C54.6425 91.4446 57.7155 91.4866 57.7155 91.5356Z" fill="#FAFAFA"/>
<path d="M58.6045 95.1476C58.6045 95.2001 55.1045 95.2386 50.796 95.2386C46.4875 95.2386 42.9875 95.2001 42.9875 95.1476C42.9875 95.0951 46.4875 95.0566 50.796 95.0566C55.1045 95.0566 58.6045 95.0986 58.6045 95.1476Z" fill="#FAFAFA"/>
<path d="M44.0795 87.598C44.0134 87.4993 43.9638 87.3906 43.9325 87.276L43.5825 86.38C43.292 85.624 42.8825 84.581 42.4625 83.4155C42.0425 82.25 41.689 81.186 41.4685 80.4055C41.36 80.0135 41.276 79.7055 41.2305 79.4745C41.1968 79.3606 41.1769 79.2431 41.171 79.1245C41.3329 79.5309 41.4731 79.9457 41.591 80.367C41.843 81.137 42.2105 82.194 42.641 83.356C43.0715 84.518 43.4495 85.568 43.691 86.338C43.8205 86.723 43.9185 87.038 43.9815 87.255C44.0287 87.3647 44.0616 87.48 44.0795 87.598Z" fill="#263238"/>
</g>
<defs>
<filter id="filter0_d_47_233" x="-1" y="0" width="183" height="183" filterUnits="userSpaceOnUse" color-interpolation-filters="sRGB">
<feFlood flood-opacity="0" result="BackgroundImageFix"/>
<feColorMatrix in="SourceAlpha" type="matrix" values="0 0 0 0 0 0 0 0 0 0 0 0 0 0 0 0 0 0 127 0" result="hardAlpha"/>
<feOffset dy="4"/>
<feGaussianBlur stdDeviation="2"/>
<feComposite in2="hardAlpha" operator="out"/>
<feColorMatrix type="matrix" values="0 0 0 0 0 0 0 0 0 0 0 0 0 0 0 0 0 0 0.25 0"/>
<feBlend mode="normal" in2="BackgroundImageFix" result="effect1_dropShadow_47_233"/>
<feBlend mode="normal" in="SourceGraphic" in2="effect1_dropShadow_47_233" result="shape"/>
</filter>
<filter id="filter1_f_47_233" x="-15.2558" y="138.721" width="211.512" height="48.7209" filterUnits="userSpaceOnUse" color-interpolation-filters="sRGB">
<feFlood flood-opacity="0" result="BackgroundImageFix"/>
<feBlend mode="normal" in="SourceGraphic" in2="BackgroundImageFix" result="shape"/>
<feGaussianBlur stdDeviation="10" result="effect1_foregroundBlur_47_233"/>
</filter>
<clipPath id="clip0_47_233">
<rect width="175" height="175" fill="white" transform="translate(3)"/>
</clipPath>
</defs>
</svg>
