<svg width="25" height="33" viewBox="0 0 25 33" fill="none" xmlns="http://www.w3.org/2000/svg">
<path d="M12.5 32.125C10.775 32.1166 9.37641 30.7248 9.35938 29H15.6094C15.6127 29.4178 15.533 29.832 15.375 30.2187C14.9652 31.1594 14.1278 31.8455 13.125 32.0625H13.1172H13.0938H13.0656H13.0516C12.87 32.1003 12.6853 32.1212 12.5 32.125ZM25 27.4375H0V24.3125L3.125 22.75V14.1562C3.04269 11.9517 3.54053 9.76426 4.56875 7.8125C5.59225 6.00236 7.34172 4.717 9.375 4.28125V0.875H15.625V4.28125C19.6547 5.24062 21.875 8.74687 21.875 14.1562V22.75L25 24.3125V27.4375Z" fill="#214353"/>
</svg>
